{
	"patcher" : 	{
		"fileversion" : 1,
		"appversion" : 		{
			"major" : 7,
			"minor" : 0,
			"revision" : 0,
			"architecture" : "x64",
			"modernui" : 1
		}
,
		"rect" : [ -566.0, -712.0, 1272.0, 678.0 ],
		"bglocked" : 0,
		"openinpresentation" : 1,
		"default_fontsize" : 12.0,
		"default_fontface" : 0,
		"default_fontname" : "Arial",
		"gridonopen" : 1,
		"gridsize" : [ 15.0, 15.0 ],
		"gridsnaponopen" : 1,
		"objectsnaponopen" : 1,
		"statusbarvisible" : 2,
		"toolbarvisible" : 1,
		"lefttoolbarpinned" : 0,
		"toptoolbarpinned" : 0,
		"righttoolbarpinned" : 0,
		"bottomtoolbarpinned" : 0,
		"toolbars_unpinned_last_save" : 0,
		"tallnewobj" : 0,
		"boxanimatetime" : 200,
		"enablehscroll" : 1,
		"enablevscroll" : 1,
		"devicewidth" : 0.0,
		"description" : "",
		"digest" : "",
		"tags" : "",
		"style" : "",
		"subpatcher_template" : "",
		"boxes" : [ 			{
				"box" : 				{
					"id" : "obj-115",
					"linecount" : 5,
					"maxclass" : "comment",
					"numinlets" : 1,
					"numoutlets" : 0,
					"patching_rect" : [ 480.0, 90.0, 150.0, 74.0 ],
					"presentation" : 1,
					"presentation_linecount" : 5,
					"presentation_rect" : [ 480.0, 90.0, 150.0, 74.0 ],
					"style" : "",
					"text" : "~ Modulazione di Ampiezza / asse X mano destra varia la Portante / asse y mano destra varia la Modulante"
				}

			}
, 			{
				"box" : 				{
					"id" : "obj-113",
					"maxclass" : "newobj",
					"numinlets" : 1,
					"numoutlets" : 2,
					"outlettype" : [ "int", "int" ],
					"patching_rect" : [ 336.0, 268.0, 29.5, 22.0 ],
					"style" : "",
					"text" : "t i i"
				}

			}
, 			{
				"box" : 				{
					"id" : "obj-112",
					"maxclass" : "newobj",
					"numinlets" : 1,
					"numoutlets" : 1,
					"outlettype" : [ "" ],
					"patching_rect" : [ 336.0, 238.0, 79.0, 22.0 ],
					"style" : "",
					"text" : "loadmess 60"
				}

			}
, 			{
				"box" : 				{
					"id" : "obj-111",
					"maxclass" : "live.line",
					"numinlets" : 1,
					"numoutlets" : 0,
					"patching_rect" : [ 894.0, 304.0, 5.0, 100.0 ],
					"presentation" : 1,
					"presentation_rect" : [ 20.0, 11.3125, 362.5, 50.0 ]
				}

			}
, 			{
				"box" : 				{
					"id" : "obj-70",
					"maxclass" : "live.line",
					"numinlets" : 1,
					"numoutlets" : 0,
					"patching_rect" : [ 879.0, 289.0, 5.0, 100.0 ],
					"presentation" : 1,
					"presentation_rect" : [ 8.5, 56.375, 384.0, 50.0 ]
				}

			}
, 			{
				"box" : 				{
					"id" : "obj-69",
					"maxclass" : "live.line",
					"numinlets" : 1,
					"numoutlets" : 0,
					"patching_rect" : [ 864.0, 274.0, 5.0, 100.0 ],
					"presentation" : 1,
					"presentation_rect" : [ 8.5, 62.5, 384.0, 50.0 ]
				}

			}
, 			{
				"box" : 				{
					"annotation" : "",
					"id" : "obj-2",
					"maxclass" : "newobj",
					"numinlets" : 2,
					"numoutlets" : 2,
					"outlettype" : [ "signal", "bang" ],
					"patching_rect" : [ 172.5, 468.0, 36.0, 22.0 ],
					"style" : "default",
					"text" : "line~"
				}

			}
, 			{
				"box" : 				{
					"id" : "obj-68",
					"maxclass" : "newobj",
					"numinlets" : 1,
					"numoutlets" : 1,
					"outlettype" : [ "" ],
					"patching_rect" : [ 172.5, 437.0, 74.0, 22.0 ],
					"style" : "",
					"text" : "append 100"
				}

			}
, 			{
				"box" : 				{
					"id" : "obj-18",
					"maxclass" : "newobj",
					"numinlets" : 2,
					"numoutlets" : 2,
					"outlettype" : [ "bang", "" ],
					"patching_rect" : [ 110.0, 91.0, 42.0, 22.0 ],
					"style" : "",
					"text" : "select"
				}

			}
, 			{
				"box" : 				{
					"id" : "obj-117",
					"maxclass" : "message",
					"numinlets" : 2,
					"numoutlets" : 1,
					"outlettype" : [ "" ],
					"patching_rect" : [ 155.0, 131.0, 67.0, 22.0 ],
					"style" : "",
					"text" : "0 0 0 1 1 1"
				}

			}
, 			{
				"box" : 				{
					"id" : "obj-116",
					"maxclass" : "message",
					"numinlets" : 2,
					"numoutlets" : 1,
					"outlettype" : [ "" ],
					"patching_rect" : [ 75.0, 131.0, 67.0, 22.0 ],
					"style" : "",
					"text" : "0 0 1 1 1 0"
				}

			}
, 			{
				"box" : 				{
					"columns" : 2,
					"id" : "obj-72",
					"maxclass" : "matrixctrl",
					"numinlets" : 1,
					"numoutlets" : 2,
					"outlettype" : [ "list", "list" ],
					"parameter_enable" : 0,
					"patching_rect" : [ 155.0, 163.0, 48.0, 37.0 ],
					"presentation_rect" : [ 0.0, 0.0, 18.0, 18.0 ],
					"rows" : 2,
					"style" : ""
				}

			}
, 			{
				"box" : 				{
					"id" : "obj-71",
					"maxclass" : "newobj",
					"numinlets" : 3,
					"numoutlets" : 3,
					"outlettype" : [ "", "", "" ],
					"patching_rect" : [ 155.0, 207.0, 283.0, 22.0 ],
					"style" : "",
					"text" : "router 2 2"
				}

			}
, 			{
				"box" : 				{
					"annotation" : "",
					"id" : "obj-5",
					"maxclass" : "newobj",
					"numinlets" : 2,
					"numoutlets" : 2,
					"outlettype" : [ "signal", "bang" ],
					"patching_rect" : [ 417.0, 454.0, 36.0, 22.0 ],
					"style" : "default",
					"text" : "line~"
				}

			}
, 			{
				"box" : 				{
					"id" : "obj-9",
					"maxclass" : "newobj",
					"numinlets" : 1,
					"numoutlets" : 1,
					"outlettype" : [ "" ],
					"patching_rect" : [ 417.0, 423.0, 74.0, 22.0 ],
					"style" : "",
					"text" : "append 100"
				}

			}
, 			{
				"box" : 				{
					"id" : "obj-162",
					"maxclass" : "newobj",
					"numinlets" : 1,
					"numoutlets" : 1,
					"outlettype" : [ "" ],
					"patching_rect" : [ 191.0, 663.0, 85.0, 22.0 ],
					"style" : "",
					"text" : "loadmess 128"
				}

			}
, 			{
				"box" : 				{
					"id" : "obj-161",
					"maxclass" : "newobj",
					"numinlets" : 1,
					"numoutlets" : 1,
					"outlettype" : [ "bang" ],
					"patching_rect" : [ 221.5, 797.0, 60.0, 22.0 ],
					"style" : "",
					"text" : "loadbang"
				}

			}
, 			{
				"box" : 				{
					"fontsize" : 18.0,
					"id" : "obj-159",
					"maxclass" : "comment",
					"numinlets" : 1,
					"numoutlets" : 0,
					"patching_rect" : [ 408.0, 293.0, 113.0, 27.0 ],
					"presentation" : 1,
					"presentation_rect" : [ 258.75, 23.5, 113.0, 27.0 ],
					"style" : "",
					"text" : "Modulante",
					"textcolor" : [ 1.0, 1.0, 1.0, 1.0 ],
					"textjustification" : 1
				}

			}
, 			{
				"box" : 				{
					"fontsize" : 18.0,
					"id" : "obj-158",
					"maxclass" : "comment",
					"numinlets" : 1,
					"numoutlets" : 0,
					"patching_rect" : [ 55.0, 293.0, 101.0, 27.0 ],
					"presentation" : 1,
					"presentation_rect" : [ 33.5, 23.5, 101.0, 27.0 ],
					"style" : "",
					"text" : "Portante",
					"textcolor" : [ 1.0, 1.0, 1.0, 1.0 ],
					"textjustification" : 1
				}

			}
, 			{
				"box" : 				{
					"id" : "obj-123",
					"maxclass" : "comment",
					"numinlets" : 1,
					"numoutlets" : 0,
					"patching_rect" : [ 476.0, 365.0, 36.0, 20.0 ],
					"presentation" : 1,
					"presentation_rect" : [ 299.5, 175.75, 36.0, 20.0 ],
					"style" : "",
					"text" : "Click",
					"textcolor" : [ 0.317647, 0.654902, 0.976471, 1.0 ]
				}

			}
, 			{
				"box" : 				{
					"id" : "obj-124",
					"maxclass" : "comment",
					"numinlets" : 1,
					"numoutlets" : 0,
					"patching_rect" : [ 469.0, 325.0, 36.0, 20.0 ],
					"presentation" : 1,
					"presentation_rect" : [ 258.75, 132.5, 36.0, 20.0 ],
					"style" : "",
					"text" : "Note",
					"textcolor" : [ 0.317647, 0.654902, 0.976471, 1.0 ]
				}

			}
, 			{
				"box" : 				{
					"id" : "obj-125",
					"maxclass" : "comment",
					"numinlets" : 1,
					"numoutlets" : 0,
					"patching_rect" : [ 296.5, 348.0, 45.0, 20.0 ],
					"presentation" : 1,
					"presentation_rect" : [ 258.75, 82.5, 45.0, 20.0 ],
					"style" : "",
					"text" : "Shape",
					"textcolor" : [ 0.317647, 0.654902, 0.976471, 1.0 ]
				}

			}
, 			{
				"box" : 				{
					"id" : "obj-126",
					"maxclass" : "comment",
					"numinlets" : 1,
					"numoutlets" : 0,
					"patching_rect" : [ 368.0, 374.0, 35.0, 20.0 ],
					"presentation" : 1,
					"presentation_rect" : [ 334.0, 132.5, 35.0, 20.0 ],
					"style" : "",
					"text" : "Freq",
					"textcolor" : [ 0.317647, 0.654902, 0.976471, 1.0 ]
				}

			}
, 			{
				"box" : 				{
					"bgcolor" : [ 0.095481, 0.100396, 0.100293, 1.0 ],
					"id" : "obj-127",
					"maxclass" : "button",
					"numinlets" : 1,
					"numoutlets" : 1,
					"outlettype" : [ "bang" ],
					"outlinecolor" : [ 1.0, 1.0, 1.0, 1.0 ],
					"patching_rect" : [ 482.0, 387.0, 24.0, 24.0 ],
					"presentation" : 1,
					"presentation_rect" : [ 302.0, 204.5, 24.0, 24.0 ],
					"style" : ""
				}

			}
, 			{
				"box" : 				{
					"bgcolor" : [ 0.317647, 0.654902, 0.976471, 1.0 ],
					"format" : 4,
					"htricolor" : [ 0.0, 0.078431, 0.321569, 1.0 ],
					"id" : "obj-128",
					"maxclass" : "number",
					"numinlets" : 1,
					"numoutlets" : 2,
					"outlettype" : [ "", "bang" ],
					"parameter_enable" : 0,
					"patching_rect" : [ 417.0, 325.0, 50.0, 22.0 ],
					"presentation" : 1,
					"presentation_rect" : [ 258.75, 154.5, 57.0, 22.0 ],
					"style" : "",
					"textcolor" : [ 0.0, 0.0, 0.0, 1.0 ],
					"tricolor" : [ 0.0, 0.0, 0.0, 1.0 ]
				}

			}
, 			{
				"box" : 				{
					"id" : "obj-129",
					"maxclass" : "newobj",
					"numinlets" : 1,
					"numoutlets" : 1,
					"outlettype" : [ "" ],
					"patching_rect" : [ 417.0, 358.0, 34.0, 22.0 ],
					"style" : "",
					"text" : "mtof"
				}

			}
, 			{
				"box" : 				{
					"bgcolor" : [ 0.317647, 0.654902, 0.976471, 1.0 ],
					"format" : 6,
					"htricolor" : [ 0.0, 0.078431, 0.321569, 1.0 ],
					"id" : "obj-130",
					"maxclass" : "flonum",
					"minimum" : 0.0,
					"numinlets" : 1,
					"numoutlets" : 2,
					"outlettype" : [ "", "bang" ],
					"parameter_enable" : 0,
					"patching_rect" : [ 417.0, 387.0, 57.0, 22.0 ],
					"presentation" : 1,
					"presentation_rect" : [ 318.0, 154.5, 60.0, 22.0 ],
					"style" : "",
					"textcolor" : [ 0.0, 0.0, 0.0, 1.0 ],
					"tricolor" : [ 0.0, 0.0, 0.0, 1.0 ]
				}

			}
, 			{
				"box" : 				{
					"id" : "obj-131",
					"maxclass" : "newobj",
					"numinlets" : 3,
					"numoutlets" : 1,
					"outlettype" : [ "signal" ],
					"patcher" : 					{
						"fileversion" : 1,
						"appversion" : 						{
							"major" : 7,
							"minor" : 0,
							"revision" : 0,
							"architecture" : "x64",
							"modernui" : 1
						}
,
						"rect" : [ 606.0, 112.0, 640.0, 480.0 ],
						"bglocked" : 0,
						"openinpresentation" : 0,
						"default_fontsize" : 12.0,
						"default_fontface" : 0,
						"default_fontname" : "Arial",
						"gridonopen" : 1,
						"gridsize" : [ 15.0, 15.0 ],
						"gridsnaponopen" : 1,
						"objectsnaponopen" : 1,
						"statusbarvisible" : 2,
						"toolbarvisible" : 1,
						"lefttoolbarpinned" : 0,
						"toptoolbarpinned" : 0,
						"righttoolbarpinned" : 0,
						"bottomtoolbarpinned" : 0,
						"toolbars_unpinned_last_save" : 0,
						"tallnewobj" : 0,
						"boxanimatetime" : 200,
						"enablehscroll" : 1,
						"enablevscroll" : 1,
						"devicewidth" : 0.0,
						"description" : "",
						"digest" : "",
						"tags" : "",
						"style" : "",
						"subpatcher_template" : "",
						"boxes" : [ 							{
								"box" : 								{
									"comment" : "",
									"id" : "obj-10",
									"maxclass" : "inlet",
									"numinlets" : 0,
									"numoutlets" : 1,
									"outlettype" : [ "bang" ],
									"patching_rect" : [ 369.75, 40.0, 30.0, 30.0 ],
									"style" : ""
								}

							}
, 							{
								"box" : 								{
									"id" : "obj-5",
									"maxclass" : "newobj",
									"numinlets" : 1,
									"numoutlets" : 1,
									"outlettype" : [ "signal" ],
									"patching_rect" : [ 369.75, 100.0, 41.0, 22.0 ],
									"style" : "",
									"text" : "click~"
								}

							}
, 							{
								"box" : 								{
									"comment" : "freq",
									"hint" : "",
									"id" : "obj-4",
									"maxclass" : "inlet",
									"numinlets" : 0,
									"numoutlets" : 1,
									"outlettype" : [ "signal" ],
									"patching_rect" : [ 98.400024, 40.0, 30.0, 30.0 ],
									"style" : ""
								}

							}
, 							{
								"box" : 								{
									"id" : "obj-18",
									"maxclass" : "newobj",
									"numinlets" : 2,
									"numoutlets" : 1,
									"outlettype" : [ "int" ],
									"patching_rect" : [ 50.0, 102.0, 29.5, 22.0 ],
									"style" : "",
									"text" : "+ 1"
								}

							}
, 							{
								"box" : 								{
									"id" : "obj-9",
									"maxclass" : "newobj",
									"numinlets" : 1,
									"numoutlets" : 1,
									"outlettype" : [ "signal" ],
									"patching_rect" : [ 323.75, 100.0, 40.0, 22.0 ],
									"style" : "",
									"text" : "pink~"
								}

							}
, 							{
								"box" : 								{
									"id" : "obj-8",
									"maxclass" : "newobj",
									"numinlets" : 1,
									"numoutlets" : 1,
									"outlettype" : [ "signal" ],
									"patching_rect" : [ 273.125, 100.0, 46.0, 22.0 ],
									"style" : "",
									"text" : "noise~"
								}

							}
, 							{
								"box" : 								{
									"id" : "obj-7",
									"maxclass" : "newobj",
									"numinlets" : 2,
									"numoutlets" : 1,
									"outlettype" : [ "signal" ],
									"patching_rect" : [ 185.0, 100.0, 39.0, 22.0 ],
									"style" : "",
									"text" : "saw~"
								}

							}
, 							{
								"box" : 								{
									"id" : "obj-6",
									"maxclass" : "newobj",
									"numinlets" : 3,
									"numoutlets" : 1,
									"outlettype" : [ "signal" ],
									"patching_rect" : [ 228.5, 100.0, 40.0, 22.0 ],
									"style" : "",
									"text" : "rect~"
								}

							}
, 							{
								"box" : 								{
									"id" : "obj-3",
									"maxclass" : "newobj",
									"numinlets" : 3,
									"numoutlets" : 1,
									"outlettype" : [ "signal" ],
									"patching_rect" : [ 139.25, 100.0, 40.0, 22.0 ],
									"style" : "",
									"text" : "tri~"
								}

							}
, 							{
								"box" : 								{
									"id" : "obj-2",
									"maxclass" : "newobj",
									"numinlets" : 2,
									"numoutlets" : 1,
									"outlettype" : [ "signal" ],
									"patching_rect" : [ 90.900024, 100.0, 45.0, 22.0 ],
									"style" : "",
									"text" : "cycle~"
								}

							}
, 							{
								"box" : 								{
									"id" : "obj-1",
									"maxclass" : "newobj",
									"numinlets" : 8,
									"numoutlets" : 1,
									"outlettype" : [ "signal" ],
									"patching_rect" : [ 50.0, 137.0, 331.375, 22.0 ],
									"style" : "",
									"text" : "selector~ 7"
								}

							}
, 							{
								"box" : 								{
									"comment" : "",
									"id" : "obj-20",
									"maxclass" : "inlet",
									"numinlets" : 0,
									"numoutlets" : 1,
									"outlettype" : [ "int" ],
									"patching_rect" : [ 50.0, 40.0, 30.0, 30.0 ],
									"style" : ""
								}

							}
, 							{
								"box" : 								{
									"comment" : "",
									"id" : "obj-22",
									"maxclass" : "outlet",
									"numinlets" : 1,
									"numoutlets" : 0,
									"patching_rect" : [ 50.0, 219.0, 30.0, 30.0 ],
									"style" : ""
								}

							}
 ],
						"lines" : [ 							{
								"patchline" : 								{
									"destination" : [ "obj-22", 0 ],
									"disabled" : 0,
									"hidden" : 0,
									"source" : [ "obj-1", 0 ]
								}

							}
, 							{
								"patchline" : 								{
									"destination" : [ "obj-5", 0 ],
									"disabled" : 0,
									"hidden" : 0,
									"source" : [ "obj-10", 0 ]
								}

							}
, 							{
								"patchline" : 								{
									"destination" : [ "obj-1", 0 ],
									"disabled" : 0,
									"hidden" : 0,
									"source" : [ "obj-18", 0 ]
								}

							}
, 							{
								"patchline" : 								{
									"destination" : [ "obj-1", 1 ],
									"disabled" : 0,
									"hidden" : 0,
									"source" : [ "obj-2", 0 ]
								}

							}
, 							{
								"patchline" : 								{
									"destination" : [ "obj-18", 0 ],
									"disabled" : 0,
									"hidden" : 0,
									"source" : [ "obj-20", 0 ]
								}

							}
, 							{
								"patchline" : 								{
									"destination" : [ "obj-1", 2 ],
									"disabled" : 0,
									"hidden" : 0,
									"source" : [ "obj-3", 0 ]
								}

							}
, 							{
								"patchline" : 								{
									"destination" : [ "obj-2", 0 ],
									"disabled" : 0,
									"hidden" : 0,
									"midpoints" : [ 107.900024, 81.5, 100.400024, 81.5 ],
									"source" : [ "obj-4", 0 ]
								}

							}
, 							{
								"patchline" : 								{
									"destination" : [ "obj-3", 0 ],
									"disabled" : 0,
									"hidden" : 0,
									"midpoints" : [ 107.900024, 81.5, 148.75, 81.5 ],
									"source" : [ "obj-4", 0 ]
								}

							}
, 							{
								"patchline" : 								{
									"destination" : [ "obj-6", 0 ],
									"disabled" : 0,
									"hidden" : 0,
									"midpoints" : [ 107.900024, 81.5, 238.0, 81.5 ],
									"source" : [ "obj-4", 0 ]
								}

							}
, 							{
								"patchline" : 								{
									"destination" : [ "obj-7", 0 ],
									"disabled" : 0,
									"hidden" : 0,
									"midpoints" : [ 107.900024, 81.5, 194.5, 81.5 ],
									"source" : [ "obj-4", 0 ]
								}

							}
, 							{
								"patchline" : 								{
									"destination" : [ "obj-1", 7 ],
									"disabled" : 0,
									"hidden" : 0,
									"source" : [ "obj-5", 0 ]
								}

							}
, 							{
								"patchline" : 								{
									"destination" : [ "obj-1", 4 ],
									"disabled" : 0,
									"hidden" : 0,
									"source" : [ "obj-6", 0 ]
								}

							}
, 							{
								"patchline" : 								{
									"destination" : [ "obj-1", 3 ],
									"disabled" : 0,
									"hidden" : 0,
									"source" : [ "obj-7", 0 ]
								}

							}
, 							{
								"patchline" : 								{
									"destination" : [ "obj-1", 5 ],
									"disabled" : 0,
									"hidden" : 0,
									"source" : [ "obj-8", 0 ]
								}

							}
, 							{
								"patchline" : 								{
									"destination" : [ "obj-1", 6 ],
									"disabled" : 0,
									"hidden" : 0,
									"source" : [ "obj-9", 0 ]
								}

							}
 ]
					}
,
					"patching_rect" : [ 368.0, 482.0, 117.0, 22.0 ],
					"saved_object_attributes" : 					{
						"description" : "",
						"digest" : "",
						"globalpatchername" : "",
						"style" : "",
						"tags" : ""
					}
,
					"style" : "",
					"text" : "p oscillator"
				}

			}
, 			{
				"box" : 				{
					"bgfillcolor_angle" : 270.0,
					"bgfillcolor_autogradient" : 0,
					"bgfillcolor_color" : [ 0.317647, 0.654902, 0.976471, 1.0 ],
					"bgfillcolor_color1" : [ 0.32549, 0.345098, 0.372549, 1.0 ],
					"bgfillcolor_color2" : [ 0.290196, 0.309804, 0.301961, 1.0 ],
					"bgfillcolor_proportion" : 0.39,
					"bgfillcolor_type" : "color",
					"color" : [ 0.317647, 0.654902, 0.976471, 1.0 ],
					"elementcolor" : [ 0.317647, 0.654902, 0.976471, 1.0 ],
					"fontface" : 0,
					"fontname" : "Arial",
					"fontsize" : 12.0,
					"id" : "obj-132",
					"items" : [ "Sin", ",", "Triangle", ",", "Saw", ",", "Square", ",", "White", "Noise", ",", "Pink", "Noise", ",", "Click" ],
					"maxclass" : "umenu",
					"numinlets" : 1,
					"numoutlets" : 3,
					"outlettype" : [ "int", "", "" ],
					"parameter_enable" : 0,
					"patching_rect" : [ 281.0, 325.0, 100.0, 22.0 ],
					"presentation" : 1,
					"presentation_rect" : [ 258.75, 108.5, 117.5, 22.0 ],
					"style" : "",
					"textcolor" : [ 0.0, 0.0, 0.0, 1.0 ]
				}

			}
, 			{
				"box" : 				{
					"angle" : 270.0,
					"grad1" : [ 0.0, 0.0, 0.0, 1.0 ],
					"grad2" : [ 0.0, 0.0, 0.0, 1.0 ],
					"id" : "obj-133",
					"maxclass" : "panel",
					"mode" : 1,
					"numinlets" : 1,
					"numoutlets" : 0,
					"patching_rect" : [ 281.0, 318.0, 225.0, 132.0 ],
					"presentation" : 1,
					"presentation_rect" : [ 252.5, 68.0, 130.0, 163.0 ],
					"proportion" : 0.39,
					"rounded" : 29,
					"style" : ""
				}

			}
, 			{
				"box" : 				{
					"angle" : 270.0,
					"grad1" : [ 0.317647, 0.654902, 0.976471, 1.0 ],
					"grad2" : [ 0.317647, 0.654902, 0.976471, 1.0 ],
					"id" : "obj-134",
					"maxclass" : "panel",
					"mode" : 1,
					"numinlets" : 1,
					"numoutlets" : 0,
					"patching_rect" : [ 281.0, 318.0, 225.0, 132.0 ],
					"presentation" : 1,
					"presentation_rect" : [ 247.0, 62.5, 141.0, 173.5 ],
					"proportion" : 0.39,
					"rounded" : 12,
					"style" : ""
				}

			}
, 			{
				"box" : 				{
					"id" : "obj-110",
					"maxclass" : "newobj",
					"numinlets" : 6,
					"numoutlets" : 1,
					"outlettype" : [ "" ],
					"patching_rect" : [ 430.731323, 165.0, 132.0, 22.0 ],
					"style" : "",
					"text" : "scale 0 127 20. 16000."
				}

			}
, 			{
				"box" : 				{
					"id" : "obj-109",
					"maxclass" : "newobj",
					"numinlets" : 6,
					"numoutlets" : 1,
					"outlettype" : [ "" ],
					"patching_rect" : [ 289.0, 161.0, 132.0, 22.0 ],
					"style" : "",
					"text" : "scale 0 127 20. 16000."
				}

			}
, 			{
				"box" : 				{
					"fontname" : "Plantin MT Std",
					"fontsize" : 48.0,
					"id" : "obj-25",
					"maxclass" : "comment",
					"numinlets" : 1,
					"numoutlets" : 0,
					"patching_rect" : [ 1497.231323, 46.0, 304.0, 54.0 ],
					"presentation" : 1,
					"presentation_rect" : [ 1447.0, 14.0, 304.0, 54.0 ],
					"style" : "",
					"text" : "GECO MAX",
					"textcolor" : [ 0.317647, 0.654902, 0.976471, 1.0 ]
				}

			}
, 			{
				"box" : 				{
					"fontname" : "Plantin MT Std",
					"fontsize" : 48.0,
					"id" : "obj-76",
					"maxclass" : "comment",
					"numinlets" : 1,
					"numoutlets" : 0,
					"patching_rect" : [ 1492.231323, 46.0, 304.0, 54.0 ],
					"presentation" : 1,
					"presentation_rect" : [ 1443.0, 14.0, 304.0, 54.0 ],
					"style" : "",
					"text" : "GECO MAX",
					"textcolor" : [ 0.011765, 0.396078, 0.752941, 1.0 ]
				}

			}
, 			{
				"box" : 				{
					"angle" : 270.0,
					"grad1" : [ 0.0, 0.0, 0.0, 1.0 ],
					"grad2" : [ 0.0, 0.0, 0.0, 1.0 ],
					"id" : "obj-77",
					"maxclass" : "panel",
					"mode" : 1,
					"numinlets" : 1,
					"numoutlets" : 0,
					"patching_rect" : [ 1167.231323, 161.0, 128.0, 128.0 ],
					"presentation" : 1,
					"presentation_rect" : [ 1237.0, 1.0, 695.0, 72.0 ],
					"proportion" : 0.39,
					"style" : ""
				}

			}
, 			{
				"box" : 				{
					"id" : "obj-49",
					"maxclass" : "comment",
					"numinlets" : 1,
					"numoutlets" : 0,
					"patching_rect" : [ 1876.553711, 290.0, 105.0, 20.0 ],
					"presentation" : 1,
					"presentation_rect" : [ 1818.0, 251.0, 105.0, 20.0 ],
					"style" : "",
					"text" : "RIGHT TRIGGER",
					"textcolor" : [ 0.011765, 0.396078, 0.752941, 1.0 ]
				}

			}
, 			{
				"box" : 				{
					"id" : "obj-78",
					"maxclass" : "comment",
					"numinlets" : 1,
					"numoutlets" : 0,
					"patching_rect" : [ 1810.0, 268.0, 97.0, 20.0 ],
					"presentation" : 1,
					"presentation_rect" : [ 1818.0, 193.0, 97.0, 20.0 ],
					"style" : "",
					"text" : "LEFT TRIGGER",
					"textcolor" : [ 0.011765, 0.396078, 0.752941, 1.0 ]
				}

			}
, 			{
				"box" : 				{
					"fontname" : "Arial",
					"id" : "obj-80",
					"maxclass" : "comment",
					"numinlets" : 1,
					"numoutlets" : 0,
					"patching_rect" : [ 1201.231323, 15.0, 94.0, 20.0 ],
					"presentation" : 1,
					"presentation_rect" : [ 1323.5, 94.0, 94.0, 20.0 ],
					"style" : "",
					"text" : "MIDI IN: GECO",
					"textcolor" : [ 0.011765, 0.396078, 0.752941, 1.0 ]
				}

			}
, 			{
				"box" : 				{
					"color" : [ 1.0, 1.0, 1.0, 1.0 ],
					"id" : "obj-62",
					"maxclass" : "newobj",
					"numinlets" : 0,
					"numoutlets" : 1,
					"outlettype" : [ "" ],
					"patching_rect" : [ 977.553711, 219.0, 49.0, 22.0 ],
					"presentation" : 1,
					"presentation_rect" : [ 1780.768555, 282.0, 49.0, 22.0 ],
					"style" : "",
					"text" : "r rhand"
				}

			}
, 			{
				"box" : 				{
					"color" : [ 1.0, 1.0, 1.0, 1.0 ],
					"id" : "obj-63",
					"maxclass" : "newobj",
					"numinlets" : 0,
					"numoutlets" : 1,
					"outlettype" : [ "" ],
					"patching_rect" : [ 978.553711, 178.0, 47.0, 22.0 ],
					"presentation" : 1,
					"presentation_rect" : [ 1778.768555, 219.0, 47.0, 22.0 ],
					"style" : "",
					"text" : "r lhand"
				}

			}
, 			{
				"box" : 				{
					"color" : [ 0.702269, 0.811747, 0.303388, 1.0 ],
					"id" : "obj-58",
					"maxclass" : "newobj",
					"numinlets" : 0,
					"numoutlets" : 1,
					"outlettype" : [ "" ],
					"patching_rect" : [ 905.5, 219.0, 67.0, 22.0 ],
					"presentation" : 1,
					"presentation_rect" : [ 1775.768555, 367.0, 67.0, 22.0 ],
					"style" : "",
					"text" : "r rightpitch"
				}

			}
, 			{
				"box" : 				{
					"color" : [ 0.941176, 0.690196, 0.196078, 1.0 ],
					"id" : "obj-59",
					"maxclass" : "newobj",
					"numinlets" : 0,
					"numoutlets" : 1,
					"outlettype" : [ "" ],
					"patching_rect" : [ 844.731323, 219.0, 57.0, 22.0 ],
					"presentation" : 1,
					"presentation_rect" : [ 1713.0, 367.0, 57.0, 22.0 ],
					"style" : "",
					"text" : "r rightroll"
				}

			}
, 			{
				"box" : 				{
					"color" : [ 0.702269, 0.811747, 0.303388, 1.0 ],
					"id" : "obj-56",
					"maxclass" : "newobj",
					"numinlets" : 1,
					"numoutlets" : 0,
					"patching_rect" : [ 1818.0, 360.0, 69.0, 22.0 ],
					"style" : "",
					"text" : "s rightpitch"
				}

			}
, 			{
				"box" : 				{
					"color" : [ 0.941176, 0.690196, 0.196078, 1.0 ],
					"id" : "obj-57",
					"maxclass" : "newobj",
					"numinlets" : 1,
					"numoutlets" : 0,
					"patching_rect" : [ 1749.231323, 360.0, 59.0, 22.0 ],
					"style" : "",
					"text" : "s rightroll"
				}

			}
, 			{
				"box" : 				{
					"color" : [ 0.702269, 0.811747, 0.303388, 1.0 ],
					"id" : "obj-54",
					"maxclass" : "newobj",
					"numinlets" : 0,
					"numoutlets" : 1,
					"outlettype" : [ "" ],
					"patching_rect" : [ 906.5, 178.0, 59.0, 22.0 ],
					"presentation" : 1,
					"presentation_rect" : [ 1493.5, 367.0, 59.0, 22.0 ],
					"style" : "",
					"text" : "r leftpitch"
				}

			}
, 			{
				"box" : 				{
					"color" : [ 0.941176, 0.690196, 0.196078, 1.0 ],
					"id" : "obj-55",
					"maxclass" : "newobj",
					"numinlets" : 0,
					"numoutlets" : 1,
					"outlettype" : [ "" ],
					"patching_rect" : [ 845.731323, 178.0, 50.0, 22.0 ],
					"presentation" : 1,
					"presentation_rect" : [ 1437.5, 367.0, 50.0, 22.0 ],
					"style" : "",
					"text" : "r leftroll"
				}

			}
, 			{
				"box" : 				{
					"color" : [ 0.702269, 0.811747, 0.303388, 1.0 ],
					"id" : "obj-53",
					"maxclass" : "newobj",
					"numinlets" : 1,
					"numoutlets" : 0,
					"patching_rect" : [ 1536.231323, 360.0, 61.0, 22.0 ],
					"style" : "",
					"text" : "s leftpitch"
				}

			}
, 			{
				"box" : 				{
					"color" : [ 0.941176, 0.690196, 0.196078, 1.0 ],
					"id" : "obj-50",
					"maxclass" : "newobj",
					"numinlets" : 1,
					"numoutlets" : 0,
					"patching_rect" : [ 1480.231323, 360.0, 52.0, 22.0 ],
					"style" : "",
					"text" : "s leftroll"
				}

			}
, 			{
				"box" : 				{
					"color" : [ 0.317647, 0.654902, 0.976471, 1.0 ],
					"id" : "obj-43",
					"maxclass" : "newobj",
					"numinlets" : 0,
					"numoutlets" : 1,
					"outlettype" : [ "" ],
					"patching_rect" : [ 791.731323, 219.0, 47.0, 22.0 ],
					"presentation" : 1,
					"presentation_rect" : [ 1662.0, 367.0, 47.0, 22.0 ],
					"style" : "",
					"text" : "r rightz"
				}

			}
, 			{
				"box" : 				{
					"color" : [ 0.999996, 0.999939, 0.041033, 1.0 ],
					"id" : "obj-44",
					"maxclass" : "newobj",
					"numinlets" : 0,
					"numoutlets" : 1,
					"outlettype" : [ "" ],
					"patching_rect" : [ 430.731323, 131.0, 47.0, 22.0 ],
					"presentation" : 1,
					"presentation_rect" : [ 1611.5, 367.0, 47.0, 22.0 ],
					"style" : "",
					"text" : "r righty"
				}

			}
, 			{
				"box" : 				{
					"color" : [ 0.784314, 0.145098, 0.023529, 1.0 ],
					"id" : "obj-45",
					"maxclass" : "newobj",
					"numinlets" : 0,
					"numoutlets" : 1,
					"outlettype" : [ "" ],
					"patching_rect" : [ 289.0, 122.0, 47.0, 22.0 ],
					"presentation" : 1,
					"presentation_rect" : [ 1559.0, 367.0, 47.0, 22.0 ],
					"style" : "",
					"text" : "r rightx"
				}

			}
, 			{
				"box" : 				{
					"color" : [ 0.317647, 0.654902, 0.976471, 1.0 ],
					"id" : "obj-81",
					"maxclass" : "newobj",
					"numinlets" : 1,
					"numoutlets" : 0,
					"patching_rect" : [ 1693.231323, 360.0, 49.0, 22.0 ],
					"style" : "",
					"text" : "s rightz"
				}

			}
, 			{
				"box" : 				{
					"color" : [ 0.999996, 0.999939, 0.041033, 1.0 ],
					"id" : "obj-83",
					"maxclass" : "newobj",
					"numinlets" : 1,
					"numoutlets" : 0,
					"patching_rect" : [ 1650.231323, 360.0, 49.0, 22.0 ],
					"style" : "",
					"text" : "s righty"
				}

			}
, 			{
				"box" : 				{
					"color" : [ 0.784314, 0.145098, 0.023529, 1.0 ],
					"id" : "obj-85",
					"maxclass" : "newobj",
					"numinlets" : 1,
					"numoutlets" : 0,
					"patching_rect" : [ 1605.231323, 360.0, 49.0, 22.0 ],
					"style" : "",
					"text" : "s rightx"
				}

			}
, 			{
				"box" : 				{
					"color" : [ 0.317647, 0.654902, 0.976471, 1.0 ],
					"id" : "obj-87",
					"maxclass" : "newobj",
					"numinlets" : 0,
					"numoutlets" : 1,
					"outlettype" : [ "" ],
					"patching_rect" : [ 792.731323, 178.0, 40.0, 22.0 ],
					"presentation" : 1,
					"presentation_rect" : [ 1388.5, 367.0, 40.0, 22.0 ],
					"style" : "",
					"text" : "r leftz"
				}

			}
, 			{
				"box" : 				{
					"color" : [ 0.999996, 0.999939, 0.041033, 1.0 ],
					"id" : "obj-88",
					"maxclass" : "newobj",
					"numinlets" : 0,
					"numoutlets" : 1,
					"outlettype" : [ "" ],
					"patching_rect" : [ 733.0, 178.0, 40.0, 22.0 ],
					"presentation" : 1,
					"presentation_rect" : [ 1338.0, 367.0, 40.0, 22.0 ],
					"style" : "",
					"text" : "r lefty"
				}

			}
, 			{
				"box" : 				{
					"color" : [ 0.784314, 0.145098, 0.023529, 1.0 ],
					"id" : "obj-89",
					"maxclass" : "newobj",
					"numinlets" : 0,
					"numoutlets" : 1,
					"outlettype" : [ "" ],
					"patching_rect" : [ 677.231323, 178.0, 40.0, 22.0 ],
					"presentation" : 1,
					"presentation_rect" : [ 1289.0, 367.0, 40.0, 22.0 ],
					"style" : "",
					"text" : "r leftx"
				}

			}
, 			{
				"box" : 				{
					"color" : [ 0.317647, 0.654902, 0.976471, 1.0 ],
					"id" : "obj-91",
					"maxclass" : "newobj",
					"numinlets" : 1,
					"numoutlets" : 0,
					"patching_rect" : [ 1430.231323, 360.0, 42.0, 22.0 ],
					"style" : "",
					"text" : "s leftz"
				}

			}
, 			{
				"box" : 				{
					"color" : [ 0.999996, 0.999939, 0.041033, 1.0 ],
					"id" : "obj-8",
					"maxclass" : "newobj",
					"numinlets" : 1,
					"numoutlets" : 0,
					"patching_rect" : [ 1386.231323, 360.0, 42.0, 22.0 ],
					"style" : "",
					"text" : "s lefty"
				}

			}
, 			{
				"box" : 				{
					"color" : [ 0.784314, 0.145098, 0.023529, 1.0 ],
					"id" : "obj-92",
					"maxclass" : "newobj",
					"numinlets" : 1,
					"numoutlets" : 0,
					"patching_rect" : [ 1342.231323, 360.0, 42.0, 22.0 ],
					"style" : "",
					"text" : "s leftx"
				}

			}
, 			{
				"box" : 				{
					"color" : [ 1.0, 1.0, 1.0, 1.0 ],
					"id" : "obj-7",
					"maxclass" : "newobj",
					"numinlets" : 1,
					"numoutlets" : 0,
					"patching_rect" : [ 1876.553711, 241.0, 51.0, 22.0 ],
					"style" : "",
					"text" : "s rhand"
				}

			}
, 			{
				"box" : 				{
					"color" : [ 1.0, 1.0, 1.0, 1.0 ],
					"id" : "obj-95",
					"maxclass" : "newobj",
					"numinlets" : 1,
					"numoutlets" : 0,
					"patching_rect" : [ 1810.0, 241.0, 49.0, 22.0 ],
					"style" : "",
					"text" : "s lhand"
				}

			}
, 			{
				"box" : 				{
					"checkedcolor" : [ 0.011765, 0.396078, 0.752941, 1.0 ],
					"id" : "obj-96",
					"maxclass" : "toggle",
					"numinlets" : 1,
					"numoutlets" : 1,
					"outlettype" : [ "int" ],
					"parameter_enable" : 0,
					"patching_rect" : [ 1856.776855, 208.0, 24.0, 24.0 ],
					"presentation" : 1,
					"presentation_rect" : [ 1780.768555, 251.0, 24.0, 24.0 ],
					"style" : ""
				}

			}
, 			{
				"box" : 				{
					"checkedcolor" : [ 0.011765, 0.396078, 0.752941, 1.0 ],
					"id" : "obj-4",
					"maxclass" : "toggle",
					"numinlets" : 1,
					"numoutlets" : 1,
					"outlettype" : [ "int" ],
					"parameter_enable" : 0,
					"patching_rect" : [ 1810.0, 208.0, 24.0, 24.0 ],
					"presentation" : 1,
					"presentation_rect" : [ 1778.768555, 187.0, 24.0, 24.0 ],
					"style" : ""
				}

			}
, 			{
				"box" : 				{
					"fontsize" : 18.0,
					"id" : "obj-52",
					"maxclass" : "comment",
					"numinlets" : 1,
					"numoutlets" : 0,
					"patching_rect" : [ 1661.231323, 411.0, 123.0, 27.0 ],
					"presentation" : 1,
					"presentation_rect" : [ 1629.5, 151.0, 123.0, 27.0 ],
					"style" : "",
					"text" : "RIGHT HAND",
					"textcolor" : [ 0.011765, 0.396078, 0.752941, 1.0 ]
				}

			}
, 			{
				"box" : 				{
					"fontsize" : 18.0,
					"id" : "obj-51",
					"maxclass" : "comment",
					"numinlets" : 1,
					"numoutlets" : 0,
					"patching_rect" : [ 1387.231323, 411.0, 111.0, 27.0 ],
					"presentation" : 1,
					"presentation_rect" : [ 1370.5, 151.0, 111.0, 27.0 ],
					"style" : "",
					"text" : "LEFT HAND",
					"textcolor" : [ 0.011765, 0.396078, 0.752941, 1.0 ]
				}

			}
, 			{
				"box" : 				{
					"id" : "obj-33",
					"maxclass" : "comment",
					"numinlets" : 1,
					"numoutlets" : 0,
					"patching_rect" : [ 1781.231323, 389.0, 46.0, 20.0 ],
					"presentation" : 1,
					"presentation_rect" : [ 1749.0, 337.0, 46.0, 20.0 ],
					"style" : "",
					"text" : "PITCH",
					"textcolor" : [ 0.011765, 0.396078, 0.752941, 1.0 ]
				}

			}
, 			{
				"box" : 				{
					"id" : "obj-34",
					"maxclass" : "comment",
					"numinlets" : 1,
					"numoutlets" : 0,
					"patching_rect" : [ 1737.231323, 389.0, 42.0, 20.0 ],
					"presentation" : 1,
					"presentation_rect" : [ 1705.0, 337.0, 42.0, 20.0 ],
					"style" : "",
					"text" : "ROLL",
					"textcolor" : [ 0.011765, 0.396078, 0.752941, 1.0 ]
				}

			}
, 			{
				"box" : 				{
					"id" : "obj-35",
					"maxclass" : "comment",
					"numinlets" : 1,
					"numoutlets" : 0,
					"patching_rect" : [ 1694.231323, 389.0, 19.0, 20.0 ],
					"presentation" : 1,
					"presentation_rect" : [ 1662.0, 337.0, 19.0, 20.0 ],
					"style" : "",
					"text" : "Z",
					"textcolor" : [ 0.011765, 0.396078, 0.752941, 1.0 ]
				}

			}
, 			{
				"box" : 				{
					"id" : "obj-36",
					"maxclass" : "comment",
					"numinlets" : 1,
					"numoutlets" : 0,
					"patching_rect" : [ 1650.231323, 389.0, 19.0, 20.0 ],
					"presentation" : 1,
					"presentation_rect" : [ 1618.0, 337.0, 19.0, 20.0 ],
					"style" : "",
					"text" : "Y",
					"textcolor" : [ 0.011765, 0.396078, 0.752941, 1.0 ]
				}

			}
, 			{
				"box" : 				{
					"id" : "obj-37",
					"maxclass" : "comment",
					"numinlets" : 1,
					"numoutlets" : 0,
					"patching_rect" : [ 1605.231323, 389.0, 19.0, 20.0 ],
					"presentation" : 1,
					"presentation_rect" : [ 1573.0, 337.0, 19.0, 20.0 ],
					"style" : "",
					"text" : "X",
					"textcolor" : [ 0.011765, 0.396078, 0.752941, 1.0 ]
				}

			}
, 			{
				"box" : 				{
					"elementcolor" : [ 0.011765, 0.396078, 0.752941, 1.0 ],
					"id" : "obj-38",
					"knobcolor" : [ 0.317647, 0.654902, 0.976471, 1.0 ],
					"maxclass" : "slider",
					"numinlets" : 1,
					"numoutlets" : 1,
					"outlettype" : [ "" ],
					"parameter_enable" : 0,
					"patching_rect" : [ 1781.231323, 208.0, 20.0, 140.0 ],
					"presentation" : 1,
					"presentation_rect" : [ 1750.0, 187.0, 20.0, 140.0 ],
					"style" : ""
				}

			}
, 			{
				"box" : 				{
					"elementcolor" : [ 0.011765, 0.396078, 0.752941, 1.0 ],
					"id" : "obj-97",
					"knobcolor" : [ 0.317647, 0.654902, 0.976471, 1.0 ],
					"maxclass" : "slider",
					"numinlets" : 1,
					"numoutlets" : 1,
					"outlettype" : [ "" ],
					"parameter_enable" : 0,
					"patching_rect" : [ 1737.231323, 208.0, 20.0, 140.0 ],
					"presentation" : 1,
					"presentation_rect" : [ 1706.0, 187.0, 20.0, 140.0 ],
					"style" : ""
				}

			}
, 			{
				"box" : 				{
					"elementcolor" : [ 0.011765, 0.396078, 0.752941, 1.0 ],
					"id" : "obj-40",
					"knobcolor" : [ 0.317647, 0.654902, 0.976471, 1.0 ],
					"maxclass" : "slider",
					"numinlets" : 1,
					"numoutlets" : 1,
					"outlettype" : [ "" ],
					"parameter_enable" : 0,
					"patching_rect" : [ 1693.231323, 208.0, 20.0, 140.0 ],
					"presentation" : 1,
					"presentation_rect" : [ 1662.0, 187.0, 20.0, 140.0 ],
					"style" : ""
				}

			}
, 			{
				"box" : 				{
					"elementcolor" : [ 0.011765, 0.396078, 0.752941, 1.0 ],
					"id" : "obj-41",
					"knobcolor" : [ 0.317647, 0.654902, 0.976471, 1.0 ],
					"maxclass" : "slider",
					"numinlets" : 1,
					"numoutlets" : 1,
					"outlettype" : [ "" ],
					"parameter_enable" : 0,
					"patching_rect" : [ 1649.231323, 208.0, 20.0, 140.0 ],
					"presentation" : 1,
					"presentation_rect" : [ 1618.0, 187.0, 20.0, 140.0 ],
					"style" : ""
				}

			}
, 			{
				"box" : 				{
					"elementcolor" : [ 0.011765, 0.396078, 0.752941, 1.0 ],
					"id" : "obj-42",
					"knobcolor" : [ 0.317647, 0.654902, 0.976471, 1.0 ],
					"maxclass" : "slider",
					"numinlets" : 1,
					"numoutlets" : 1,
					"outlettype" : [ "" ],
					"parameter_enable" : 0,
					"patching_rect" : [ 1605.231323, 208.0, 20.0, 140.0 ],
					"presentation" : 1,
					"presentation_rect" : [ 1573.0, 187.0, 20.0, 140.0 ],
					"style" : ""
				}

			}
, 			{
				"box" : 				{
					"id" : "obj-98",
					"maxclass" : "comment",
					"numinlets" : 1,
					"numoutlets" : 0,
					"patching_rect" : [ 1518.231323, 389.0, 46.0, 20.0 ],
					"presentation" : 1,
					"presentation_rect" : [ 1486.0, 337.0, 46.0, 20.0 ],
					"style" : "",
					"text" : "PITCH",
					"textcolor" : [ 0.011765, 0.396078, 0.752941, 1.0 ]
				}

			}
, 			{
				"box" : 				{
					"id" : "obj-31",
					"maxclass" : "comment",
					"numinlets" : 1,
					"numoutlets" : 0,
					"patching_rect" : [ 1474.231323, 389.0, 42.0, 20.0 ],
					"presentation" : 1,
					"presentation_rect" : [ 1442.0, 337.0, 42.0, 20.0 ],
					"style" : "",
					"text" : "ROLL",
					"textcolor" : [ 0.011765, 0.396078, 0.752941, 1.0 ]
				}

			}
, 			{
				"box" : 				{
					"id" : "obj-99",
					"maxclass" : "comment",
					"numinlets" : 1,
					"numoutlets" : 0,
					"patching_rect" : [ 1431.231323, 389.0, 19.0, 20.0 ],
					"presentation" : 1,
					"presentation_rect" : [ 1399.0, 337.0, 19.0, 20.0 ],
					"style" : "",
					"text" : "Z",
					"textcolor" : [ 0.011765, 0.396078, 0.752941, 1.0 ]
				}

			}
, 			{
				"box" : 				{
					"id" : "obj-29",
					"maxclass" : "comment",
					"numinlets" : 1,
					"numoutlets" : 0,
					"patching_rect" : [ 1387.231323, 389.0, 19.0, 20.0 ],
					"presentation" : 1,
					"presentation_rect" : [ 1355.0, 337.0, 19.0, 20.0 ],
					"style" : "",
					"text" : "Y",
					"textcolor" : [ 0.011765, 0.396078, 0.752941, 1.0 ]
				}

			}
, 			{
				"box" : 				{
					"id" : "obj-100",
					"maxclass" : "comment",
					"numinlets" : 1,
					"numoutlets" : 0,
					"patching_rect" : [ 1342.231323, 389.0, 19.0, 20.0 ],
					"presentation" : 1,
					"presentation_rect" : [ 1310.0, 337.0, 19.0, 20.0 ],
					"style" : "",
					"text" : "X",
					"textcolor" : [ 0.011765, 0.396078, 0.752941, 1.0 ]
				}

			}
, 			{
				"box" : 				{
					"elementcolor" : [ 0.011765, 0.396078, 0.752941, 1.0 ],
					"id" : "obj-101",
					"knobcolor" : [ 0.317647, 0.654902, 0.976471, 1.0 ],
					"maxclass" : "slider",
					"numinlets" : 1,
					"numoutlets" : 1,
					"outlettype" : [ "" ],
					"parameter_enable" : 0,
					"patching_rect" : [ 1518.231323, 208.0, 20.0, 140.0 ],
					"presentation" : 1,
					"presentation_rect" : [ 1486.0, 187.0, 20.0, 140.0 ],
					"style" : ""
				}

			}
, 			{
				"box" : 				{
					"elementcolor" : [ 0.011765, 0.396078, 0.752941, 1.0 ],
					"id" : "obj-102",
					"knobcolor" : [ 0.317647, 0.654902, 0.976471, 1.0 ],
					"maxclass" : "slider",
					"numinlets" : 1,
					"numoutlets" : 1,
					"outlettype" : [ "" ],
					"parameter_enable" : 0,
					"patching_rect" : [ 1474.231323, 208.0, 20.0, 140.0 ],
					"presentation" : 1,
					"presentation_rect" : [ 1442.0, 187.0, 20.0, 140.0 ],
					"style" : ""
				}

			}
, 			{
				"box" : 				{
					"elementcolor" : [ 0.011765, 0.396078, 0.752941, 1.0 ],
					"id" : "obj-103",
					"knobcolor" : [ 0.317647, 0.654902, 0.976471, 1.0 ],
					"maxclass" : "slider",
					"numinlets" : 1,
					"numoutlets" : 1,
					"outlettype" : [ "" ],
					"parameter_enable" : 0,
					"patching_rect" : [ 1430.231323, 208.0, 20.0, 140.0 ],
					"presentation" : 1,
					"presentation_rect" : [ 1398.0, 187.0, 20.0, 140.0 ],
					"style" : ""
				}

			}
, 			{
				"box" : 				{
					"elementcolor" : [ 0.011765, 0.396078, 0.752941, 1.0 ],
					"id" : "obj-104",
					"knobcolor" : [ 0.317647, 0.654902, 0.976471, 1.0 ],
					"maxclass" : "slider",
					"numinlets" : 1,
					"numoutlets" : 1,
					"outlettype" : [ "" ],
					"parameter_enable" : 0,
					"patching_rect" : [ 1386.231323, 208.0, 20.0, 140.0 ],
					"presentation" : 1,
					"presentation_rect" : [ 1354.0, 187.0, 20.0, 140.0 ],
					"style" : ""
				}

			}
, 			{
				"box" : 				{
					"elementcolor" : [ 0.011765, 0.396078, 0.752941, 1.0 ],
					"id" : "obj-105",
					"knobcolor" : [ 0.317647, 0.654902, 0.976471, 1.0 ],
					"maxclass" : "slider",
					"numinlets" : 1,
					"numoutlets" : 1,
					"outlettype" : [ "" ],
					"parameter_enable" : 0,
					"patching_rect" : [ 1342.231323, 208.0, 20.0, 140.0 ],
					"presentation" : 1,
					"presentation_rect" : [ 1310.0, 187.0, 20.0, 140.0 ],
					"style" : ""
				}

			}
, 			{
				"box" : 				{
					"id" : "obj-106",
					"maxclass" : "newobj",
					"numinlets" : 13,
					"numoutlets" : 13,
					"outlettype" : [ "", "", "", "", "", "", "", "", "", "", "", "", "" ],
					"patching_rect" : [ 1342.231323, 168.0, 580.322327, 22.0 ],
					"style" : "",
					"text" : "route 101 102 103 104 105 111 112 113 114 115 106 116"
				}

			}
, 			{
				"box" : 				{
					"id" : "obj-14",
					"maxclass" : "newobj",
					"numinlets" : 1,
					"numoutlets" : 1,
					"outlettype" : [ "" ],
					"patching_rect" : [ 1252.231323, 93.0, 74.0, 22.0 ],
					"style" : "",
					"text" : "prepend set"
				}

			}
, 			{
				"box" : 				{
					"id" : "obj-107",
					"maxclass" : "newobj",
					"numinlets" : 2,
					"numoutlets" : 1,
					"outlettype" : [ "" ],
					"patching_rect" : [ 1342.231323, 133.0, 36.0, 22.0 ],
					"style" : "",
					"text" : "pack"
				}

			}
, 			{
				"box" : 				{
					"id" : "obj-12",
					"maxclass" : "newobj",
					"numinlets" : 1,
					"numoutlets" : 2,
					"outlettype" : [ "bang", "int" ],
					"patching_rect" : [ 1341.231323, 93.0, 43.0, 22.0 ],
					"style" : "",
					"text" : "t b i"
				}

			}
, 			{
				"box" : 				{
					"id" : "obj-108",
					"maxclass" : "newobj",
					"numinlets" : 3,
					"numoutlets" : 1,
					"outlettype" : [ "" ],
					"patching_rect" : [ 1193.231445, 93.0, 54.0, 22.0 ],
					"style" : "",
					"text" : "pack i i i"
				}

			}
, 			{
				"box" : 				{
					"id" : "obj-1",
					"maxclass" : "newobj",
					"numinlets" : 1,
					"numoutlets" : 3,
					"outlettype" : [ "int", "int", "int" ],
					"patching_rect" : [ 1193.231445, 42.0, 119.0, 22.0 ],
					"presentation" : 1,
					"presentation_rect" : [ 1311.0, 116.0, 119.0, 22.0 ],
					"style" : "",
					"text" : "ctlin"
				}

			}
, 			{
				"box" : 				{
					"angle" : 270.0,
					"bordercolor" : [ 0.65098, 0.666667, 0.662745, 1.0 ],
					"grad1" : [ 0.239216, 0.254902, 0.278431, 1.0 ],
					"grad2" : [ 0.290196, 0.309804, 0.301961, 1.0 ],
					"id" : "obj-60",
					"maxclass" : "panel",
					"mode" : 1,
					"numinlets" : 1,
					"numoutlets" : 0,
					"patching_rect" : [ 1180.0, 178.0, 128.0, 128.0 ],
					"presentation" : 1,
					"presentation_rect" : [ 1247.0, 78.0, 674.0, 370.0 ],
					"proportion" : 0.39,
					"style" : ""
				}

			}
, 			{
				"box" : 				{
					"angle" : 270.0,
					"grad1" : [ 0.0, 0.0, 0.0, 1.0 ],
					"grad2" : [ 0.0, 0.0, 0.0, 1.0 ],
					"id" : "obj-61",
					"maxclass" : "panel",
					"mode" : 1,
					"numinlets" : 1,
					"numoutlets" : 0,
					"patching_rect" : [ 1193.231445, 205.0, 128.0, 128.0 ],
					"presentation" : 1,
					"presentation_rect" : [ 1237.0, 67.0, 695.0, 392.0 ],
					"proportion" : 0.39,
					"style" : ""
				}

			}
, 			{
				"box" : 				{
					"id" : "obj-93",
					"maxclass" : "comment",
					"numinlets" : 1,
					"numoutlets" : 0,
					"patching_rect" : [ 240.0, 369.0, 36.0, 20.0 ],
					"presentation" : 1,
					"presentation_rect" : [ 65.5, 176.0, 36.0, 20.0 ],
					"style" : "",
					"text" : "Click",
					"textcolor" : [ 0.317647, 0.654902, 0.976471, 1.0 ]
				}

			}
, 			{
				"box" : 				{
					"id" : "obj-90",
					"maxclass" : "comment",
					"numinlets" : 1,
					"numoutlets" : 0,
					"patching_rect" : [ 233.0, 329.0, 36.0, 20.0 ],
					"presentation" : 1,
					"presentation_rect" : [ 25.0, 128.0, 36.0, 20.0 ],
					"style" : "",
					"text" : "Note",
					"textcolor" : [ 0.317647, 0.654902, 0.976471, 1.0 ]
				}

			}
, 			{
				"box" : 				{
					"id" : "obj-86",
					"maxclass" : "comment",
					"numinlets" : 1,
					"numoutlets" : 0,
					"patching_rect" : [ 60.5, 352.0, 45.0, 20.0 ],
					"presentation" : 1,
					"presentation_rect" : [ 25.0, 78.0, 45.0, 20.0 ],
					"style" : "",
					"text" : "Shape",
					"textcolor" : [ 0.317647, 0.654902, 0.976471, 1.0 ]
				}

			}
, 			{
				"box" : 				{
					"id" : "obj-84",
					"maxclass" : "comment",
					"numinlets" : 1,
					"numoutlets" : 0,
					"patching_rect" : [ 127.5, 378.0, 35.0, 20.0 ],
					"presentation" : 1,
					"presentation_rect" : [ 83.25, 128.0, 35.0, 20.0 ],
					"style" : "",
					"text" : "Freq",
					"textcolor" : [ 0.317647, 0.654902, 0.976471, 1.0 ]
				}

			}
, 			{
				"box" : 				{
					"bgcolor" : [ 0.095481, 0.100396, 0.100293, 1.0 ],
					"id" : "obj-82",
					"maxclass" : "button",
					"numinlets" : 1,
					"numoutlets" : 1,
					"outlettype" : [ "bang" ],
					"outlinecolor" : [ 1.0, 1.0, 1.0, 1.0 ],
					"patching_rect" : [ 246.0, 391.0, 24.0, 24.0 ],
					"presentation" : 1,
					"presentation_rect" : [ 71.5, 200.0, 24.0, 24.0 ],
					"style" : ""
				}

			}
, 			{
				"box" : 				{
					"bgcolor" : [ 0.317647, 0.654902, 0.976471, 1.0 ],
					"format" : 4,
					"htricolor" : [ 0.0, 0.078431, 0.321569, 1.0 ],
					"id" : "obj-15",
					"maxclass" : "number",
					"numinlets" : 1,
					"numoutlets" : 2,
					"outlettype" : [ "", "bang" ],
					"parameter_enable" : 0,
					"patching_rect" : [ 181.0, 329.0, 50.0, 22.0 ],
					"presentation" : 1,
					"presentation_rect" : [ 25.0, 150.0, 57.0, 22.0 ],
					"style" : "",
					"textcolor" : [ 0.0, 0.0, 0.0, 1.0 ],
					"tricolor" : [ 0.0, 0.0, 0.0, 1.0 ]
				}

			}
, 			{
				"box" : 				{
					"id" : "obj-20",
					"maxclass" : "newobj",
					"numinlets" : 1,
					"numoutlets" : 1,
					"outlettype" : [ "" ],
					"patching_rect" : [ 181.0, 362.0, 34.0, 22.0 ],
					"style" : "",
					"text" : "mtof"
				}

			}
, 			{
				"box" : 				{
					"bgcolor" : [ 0.317647, 0.654902, 0.976471, 1.0 ],
					"format" : 6,
					"htricolor" : [ 0.0, 0.078431, 0.321569, 1.0 ],
					"id" : "obj-23",
					"maxclass" : "flonum",
					"minimum" : 20.0,
					"numinlets" : 1,
					"numoutlets" : 2,
					"outlettype" : [ "", "bang" ],
					"parameter_enable" : 0,
					"patching_rect" : [ 181.0, 391.0, 57.0, 22.0 ],
					"presentation" : 1,
					"presentation_rect" : [ 83.25, 150.0, 60.0, 22.0 ],
					"style" : "",
					"textcolor" : [ 0.0, 0.0, 0.0, 1.0 ],
					"tricolor" : [ 0.0, 0.0, 0.0, 1.0 ]
				}

			}
, 			{
				"box" : 				{
					"id" : "obj-26",
					"maxclass" : "newobj",
					"numinlets" : 3,
					"numoutlets" : 1,
					"outlettype" : [ "signal" ],
					"patcher" : 					{
						"fileversion" : 1,
						"appversion" : 						{
							"major" : 7,
							"minor" : 0,
							"revision" : 0,
							"architecture" : "x64",
							"modernui" : 1
						}
,
						"rect" : [ 606.0, 112.0, 640.0, 480.0 ],
						"bglocked" : 0,
						"openinpresentation" : 0,
						"default_fontsize" : 12.0,
						"default_fontface" : 0,
						"default_fontname" : "Arial",
						"gridonopen" : 1,
						"gridsize" : [ 15.0, 15.0 ],
						"gridsnaponopen" : 1,
						"objectsnaponopen" : 1,
						"statusbarvisible" : 2,
						"toolbarvisible" : 1,
						"lefttoolbarpinned" : 0,
						"toptoolbarpinned" : 0,
						"righttoolbarpinned" : 0,
						"bottomtoolbarpinned" : 0,
						"toolbars_unpinned_last_save" : 0,
						"tallnewobj" : 0,
						"boxanimatetime" : 200,
						"enablehscroll" : 1,
						"enablevscroll" : 1,
						"devicewidth" : 0.0,
						"description" : "",
						"digest" : "",
						"tags" : "",
						"style" : "",
						"subpatcher_template" : "",
						"boxes" : [ 							{
								"box" : 								{
									"comment" : "",
									"id" : "obj-10",
									"maxclass" : "inlet",
									"numinlets" : 0,
									"numoutlets" : 1,
									"outlettype" : [ "bang" ],
									"patching_rect" : [ 369.75, 40.0, 30.0, 30.0 ],
									"style" : ""
								}

							}
, 							{
								"box" : 								{
									"id" : "obj-5",
									"maxclass" : "newobj",
									"numinlets" : 1,
									"numoutlets" : 1,
									"outlettype" : [ "signal" ],
									"patching_rect" : [ 369.75, 100.0, 41.0, 22.0 ],
									"style" : "",
									"text" : "click~"
								}

							}
, 							{
								"box" : 								{
									"comment" : "freq",
									"hint" : "",
									"id" : "obj-4",
									"maxclass" : "inlet",
									"numinlets" : 0,
									"numoutlets" : 1,
									"outlettype" : [ "signal" ],
									"patching_rect" : [ 98.400024, 40.0, 30.0, 30.0 ],
									"style" : ""
								}

							}
, 							{
								"box" : 								{
									"id" : "obj-18",
									"maxclass" : "newobj",
									"numinlets" : 2,
									"numoutlets" : 1,
									"outlettype" : [ "int" ],
									"patching_rect" : [ 50.0, 102.0, 29.5, 22.0 ],
									"style" : "",
									"text" : "+ 1"
								}

							}
, 							{
								"box" : 								{
									"id" : "obj-9",
									"maxclass" : "newobj",
									"numinlets" : 1,
									"numoutlets" : 1,
									"outlettype" : [ "signal" ],
									"patching_rect" : [ 323.75, 100.0, 40.0, 22.0 ],
									"style" : "",
									"text" : "pink~"
								}

							}
, 							{
								"box" : 								{
									"id" : "obj-8",
									"maxclass" : "newobj",
									"numinlets" : 1,
									"numoutlets" : 1,
									"outlettype" : [ "signal" ],
									"patching_rect" : [ 273.125, 100.0, 46.0, 22.0 ],
									"style" : "",
									"text" : "noise~"
								}

							}
, 							{
								"box" : 								{
									"id" : "obj-7",
									"maxclass" : "newobj",
									"numinlets" : 2,
									"numoutlets" : 1,
									"outlettype" : [ "signal" ],
									"patching_rect" : [ 185.0, 100.0, 39.0, 22.0 ],
									"style" : "",
									"text" : "saw~"
								}

							}
, 							{
								"box" : 								{
									"id" : "obj-6",
									"maxclass" : "newobj",
									"numinlets" : 3,
									"numoutlets" : 1,
									"outlettype" : [ "signal" ],
									"patching_rect" : [ 228.5, 100.0, 40.0, 22.0 ],
									"style" : "",
									"text" : "rect~"
								}

							}
, 							{
								"box" : 								{
									"id" : "obj-3",
									"maxclass" : "newobj",
									"numinlets" : 3,
									"numoutlets" : 1,
									"outlettype" : [ "signal" ],
									"patching_rect" : [ 139.25, 100.0, 40.0, 22.0 ],
									"style" : "",
									"text" : "tri~"
								}

							}
, 							{
								"box" : 								{
									"id" : "obj-2",
									"maxclass" : "newobj",
									"numinlets" : 2,
									"numoutlets" : 1,
									"outlettype" : [ "signal" ],
									"patching_rect" : [ 90.900024, 100.0, 45.0, 22.0 ],
									"style" : "",
									"text" : "cycle~"
								}

							}
, 							{
								"box" : 								{
									"id" : "obj-1",
									"maxclass" : "newobj",
									"numinlets" : 8,
									"numoutlets" : 1,
									"outlettype" : [ "signal" ],
									"patching_rect" : [ 50.0, 137.0, 331.375, 22.0 ],
									"style" : "",
									"text" : "selector~ 7"
								}

							}
, 							{
								"box" : 								{
									"comment" : "",
									"id" : "obj-20",
									"maxclass" : "inlet",
									"numinlets" : 0,
									"numoutlets" : 1,
									"outlettype" : [ "int" ],
									"patching_rect" : [ 50.0, 40.0, 30.0, 30.0 ],
									"style" : ""
								}

							}
, 							{
								"box" : 								{
									"comment" : "",
									"id" : "obj-22",
									"maxclass" : "outlet",
									"numinlets" : 1,
									"numoutlets" : 0,
									"patching_rect" : [ 50.0, 219.0, 30.0, 30.0 ],
									"style" : ""
								}

							}
 ],
						"lines" : [ 							{
								"patchline" : 								{
									"destination" : [ "obj-22", 0 ],
									"disabled" : 0,
									"hidden" : 0,
									"source" : [ "obj-1", 0 ]
								}

							}
, 							{
								"patchline" : 								{
									"destination" : [ "obj-5", 0 ],
									"disabled" : 0,
									"hidden" : 0,
									"source" : [ "obj-10", 0 ]
								}

							}
, 							{
								"patchline" : 								{
									"destination" : [ "obj-1", 0 ],
									"disabled" : 0,
									"hidden" : 0,
									"source" : [ "obj-18", 0 ]
								}

							}
, 							{
								"patchline" : 								{
									"destination" : [ "obj-1", 1 ],
									"disabled" : 0,
									"hidden" : 0,
									"source" : [ "obj-2", 0 ]
								}

							}
, 							{
								"patchline" : 								{
									"destination" : [ "obj-18", 0 ],
									"disabled" : 0,
									"hidden" : 0,
									"source" : [ "obj-20", 0 ]
								}

							}
, 							{
								"patchline" : 								{
									"destination" : [ "obj-1", 2 ],
									"disabled" : 0,
									"hidden" : 0,
									"source" : [ "obj-3", 0 ]
								}

							}
, 							{
								"patchline" : 								{
									"destination" : [ "obj-2", 0 ],
									"disabled" : 0,
									"hidden" : 0,
									"midpoints" : [ 107.900024, 81.5, 100.400024, 81.5 ],
									"source" : [ "obj-4", 0 ]
								}

							}
, 							{
								"patchline" : 								{
									"destination" : [ "obj-3", 0 ],
									"disabled" : 0,
									"hidden" : 0,
									"midpoints" : [ 107.900024, 81.5, 148.75, 81.5 ],
									"source" : [ "obj-4", 0 ]
								}

							}
, 							{
								"patchline" : 								{
									"destination" : [ "obj-6", 0 ],
									"disabled" : 0,
									"hidden" : 0,
									"midpoints" : [ 107.900024, 81.5, 238.0, 81.5 ],
									"source" : [ "obj-4", 0 ]
								}

							}
, 							{
								"patchline" : 								{
									"destination" : [ "obj-7", 0 ],
									"disabled" : 0,
									"hidden" : 0,
									"midpoints" : [ 107.900024, 81.5, 194.5, 81.5 ],
									"source" : [ "obj-4", 0 ]
								}

							}
, 							{
								"patchline" : 								{
									"destination" : [ "obj-1", 7 ],
									"disabled" : 0,
									"hidden" : 0,
									"source" : [ "obj-5", 0 ]
								}

							}
, 							{
								"patchline" : 								{
									"destination" : [ "obj-1", 4 ],
									"disabled" : 0,
									"hidden" : 0,
									"source" : [ "obj-6", 0 ]
								}

							}
, 							{
								"patchline" : 								{
									"destination" : [ "obj-1", 3 ],
									"disabled" : 0,
									"hidden" : 0,
									"source" : [ "obj-7", 0 ]
								}

							}
, 							{
								"patchline" : 								{
									"destination" : [ "obj-1", 5 ],
									"disabled" : 0,
									"hidden" : 0,
									"source" : [ "obj-8", 0 ]
								}

							}
, 							{
								"patchline" : 								{
									"destination" : [ "obj-1", 6 ],
									"disabled" : 0,
									"hidden" : 0,
									"source" : [ "obj-9", 0 ]
								}

							}
 ]
					}
,
					"patching_rect" : [ 132.0, 501.0, 117.0, 22.0 ],
					"saved_object_attributes" : 					{
						"description" : "",
						"digest" : "",
						"globalpatchername" : "",
						"style" : "",
						"tags" : ""
					}
,
					"style" : "",
					"text" : "p oscillator"
				}

			}
, 			{
				"box" : 				{
					"bgfillcolor_angle" : 270.0,
					"bgfillcolor_autogradient" : 0,
					"bgfillcolor_color" : [ 0.317647, 0.654902, 0.976471, 1.0 ],
					"bgfillcolor_color1" : [ 0.32549, 0.345098, 0.372549, 1.0 ],
					"bgfillcolor_color2" : [ 0.290196, 0.309804, 0.301961, 1.0 ],
					"bgfillcolor_proportion" : 0.39,
					"bgfillcolor_type" : "color",
					"color" : [ 0.317647, 0.654902, 0.976471, 1.0 ],
					"elementcolor" : [ 0.317647, 0.654902, 0.976471, 1.0 ],
					"fontface" : 0,
					"fontname" : "Arial",
					"fontsize" : 12.0,
					"id" : "obj-39",
					"items" : [ "Sin", ",", "Triangle", ",", "Saw", ",", "Square", ",", "White", "Noise", ",", "Pink", "Noise", ",", "Click" ],
					"maxclass" : "umenu",
					"numinlets" : 1,
					"numoutlets" : 3,
					"outlettype" : [ "int", "", "" ],
					"parameter_enable" : 0,
					"patching_rect" : [ 45.0, 329.0, 100.0, 22.0 ],
					"presentation" : 1,
					"presentation_rect" : [ 25.0, 100.0, 117.5, 22.0 ],
					"style" : "",
					"textcolor" : [ 0.0, 0.0, 0.0, 1.0 ]
				}

			}
, 			{
				"box" : 				{
					"angle" : 270.0,
					"grad1" : [ 0.0, 0.0, 0.0, 1.0 ],
					"grad2" : [ 0.0, 0.0, 0.0, 1.0 ],
					"id" : "obj-79",
					"maxclass" : "panel",
					"mode" : 1,
					"numinlets" : 1,
					"numoutlets" : 0,
					"patching_rect" : [ 45.0, 322.0, 225.0, 132.0 ],
					"presentation" : 1,
					"presentation_rect" : [ 20.0, 68.0, 130.0, 163.0 ],
					"proportion" : 0.39,
					"rounded" : 29,
					"style" : ""
				}

			}
, 			{
				"box" : 				{
					"angle" : 270.0,
					"grad1" : [ 0.317647, 0.654902, 0.976471, 1.0 ],
					"grad2" : [ 0.317647, 0.654902, 0.976471, 1.0 ],
					"id" : "obj-94",
					"maxclass" : "panel",
					"mode" : 1,
					"numinlets" : 1,
					"numoutlets" : 0,
					"patching_rect" : [ 45.0, 322.0, 225.0, 132.0 ],
					"presentation" : 1,
					"presentation_rect" : [ 13.5, 62.5, 141.0, 173.5 ],
					"proportion" : 0.39,
					"rounded" : 12,
					"style" : ""
				}

			}
, 			{
				"box" : 				{
					"id" : "obj-6",
					"maxclass" : "spectroscope~",
					"numinlets" : 2,
					"numoutlets" : 1,
					"outlettype" : [ "" ],
					"patching_rect" : [ 388.0, 714.0, 267.0, 92.0 ],
					"style" : ""
				}

			}
, 			{
				"box" : 				{
					"id" : "obj-3",
					"maxclass" : "newobj",
					"numinlets" : 2,
					"numoutlets" : 1,
					"outlettype" : [ "signal" ],
					"patching_rect" : [ 305.5, 675.0, 36.0, 22.0 ],
					"style" : "",
					"text" : "*~ 1."
				}

			}
, 			{
				"box" : 				{
					"fontname" : "Arial",
					"fontsize" : 13.0,
					"id" : "obj-64",
					"maxclass" : "comment",
					"numinlets" : 1,
					"numoutlets" : 0,
					"patching_rect" : [ 561.5, 369.0, 108.0, 21.0 ],
					"presentation" : 1,
					"presentation_rect" : [ 172.5, 150.0, 36.0, 21.0 ],
					"style" : "",
					"text" : "R.M.",
					"textcolor" : [ 1.0, 1.0, 1.0, 1.0 ]
				}

			}
, 			{
				"box" : 				{
					"fontname" : "Arial",
					"fontsize" : 13.0,
					"id" : "obj-66",
					"maxclass" : "comment",
					"numinlets" : 1,
					"numoutlets" : 0,
					"patching_rect" : [ 561.5, 353.0, 105.0, 21.0 ],
					"presentation" : 1,
					"presentation_rect" : [ 172.5, 134.0, 36.0, 21.0 ],
					"style" : "",
					"text" : "A.M.",
					"textcolor" : [ 1.0, 1.0, 1.0, 1.0 ]
				}

			}
, 			{
				"box" : 				{
					"activecolor" : [ 1.0, 1.0, 1.0, 1.0 ],
					"bgcolor" : [ 0.095481, 0.100396, 0.100293, 1.0 ],
					"disabled" : [ 0, 0 ],
					"elementcolor" : [ 0.239216, 0.254902, 0.278431, 1.0 ],
					"id" : "obj-73",
					"itemtype" : 0,
					"maxclass" : "radiogroup",
					"numinlets" : 1,
					"numoutlets" : 1,
					"outlettype" : [ "" ],
					"parameter_enable" : 0,
					"patching_rect" : [ 543.5, 355.0, 111.5, 34.0 ],
					"presentation" : 1,
					"presentation_rect" : [ 154.5, 136.0, 112.5, 34.0 ],
					"size" : 2,
					"style" : "",
					"value" : 1
				}

			}
, 			{
				"box" : 				{
					"id" : "obj-32",
					"maxclass" : "newobj",
					"numinlets" : 2,
					"numoutlets" : 2,
					"outlettype" : [ "bang", "" ],
					"patching_rect" : [ 543.0, 410.0, 36.0, 22.0 ],
					"style" : "",
					"text" : "sel 1"
				}

			}
, 			{
				"box" : 				{
					"id" : "obj-30",
					"maxclass" : "message",
					"numinlets" : 2,
					"numoutlets" : 1,
					"outlettype" : [ "" ],
					"patching_rect" : [ 675.0, 519.0, 29.5, 22.0 ],
					"style" : "",
					"text" : "0.5"
				}

			}
, 			{
				"box" : 				{
					"id" : "obj-28",
					"maxclass" : "button",
					"numinlets" : 1,
					"numoutlets" : 1,
					"outlettype" : [ "bang" ],
					"patching_rect" : [ 675.0, 473.5, 24.0, 24.0 ],
					"style" : ""
				}

			}
, 			{
				"box" : 				{
					"id" : "obj-27",
					"maxclass" : "button",
					"numinlets" : 1,
					"numoutlets" : 1,
					"outlettype" : [ "bang" ],
					"patching_rect" : [ 543.0, 469.0, 24.0, 24.0 ],
					"style" : ""
				}

			}
, 			{
				"box" : 				{
					"id" : "obj-24",
					"maxclass" : "message",
					"numinlets" : 2,
					"numoutlets" : 1,
					"outlettype" : [ "" ],
					"patching_rect" : [ 599.0, 519.0, 29.5, 22.0 ],
					"style" : "",
					"text" : "1."
				}

			}
, 			{
				"box" : 				{
					"id" : "obj-22",
					"maxclass" : "message",
					"numinlets" : 2,
					"numoutlets" : 1,
					"outlettype" : [ "" ],
					"patching_rect" : [ 640.5, 519.0, 29.5, 22.0 ],
					"style" : "",
					"text" : "0."
				}

			}
, 			{
				"box" : 				{
					"id" : "obj-13",
					"maxclass" : "newobj",
					"numinlets" : 2,
					"numoutlets" : 1,
					"outlettype" : [ "signal" ],
					"patching_rect" : [ 189.5, 566.0, 36.0, 22.0 ],
					"style" : "",
					"text" : "*~ 1."
				}

			}
, 			{
				"box" : 				{
					"id" : "obj-11",
					"maxclass" : "newobj",
					"numinlets" : 2,
					"numoutlets" : 1,
					"outlettype" : [ "signal" ],
					"patching_rect" : [ 316.0, 596.0, 45.0, 22.0 ],
					"style" : "",
					"text" : "+~ 0.5"
				}

			}
, 			{
				"box" : 				{
					"id" : "obj-10",
					"maxclass" : "newobj",
					"numinlets" : 2,
					"numoutlets" : 1,
					"outlettype" : [ "signal" ],
					"patching_rect" : [ 316.0, 566.0, 42.0, 22.0 ],
					"style" : "",
					"text" : "*~ 0.5"
				}

			}
, 			{
				"box" : 				{
					"id" : "obj-21",
					"maxclass" : "message",
					"numinlets" : 2,
					"numoutlets" : 1,
					"outlettype" : [ "" ],
					"patching_rect" : [ 262.5, 852.0, 33.0, 22.0 ],
					"style" : "",
					"text" : "stop"
				}

			}
, 			{
				"box" : 				{
					"id" : "obj-19",
					"maxclass" : "message",
					"numinlets" : 2,
					"numoutlets" : 1,
					"outlettype" : [ "" ],
					"patching_rect" : [ 221.5, 825.0, 74.0, 22.0 ],
					"style" : "",
					"text" : "startwindow"
				}

			}
, 			{
				"box" : 				{
					"id" : "obj-17",
					"maxclass" : "newobj",
					"numinlets" : 2,
					"numoutlets" : 0,
					"patching_rect" : [ 298.0, 879.0, 37.0, 22.0 ],
					"style" : "",
					"text" : "dac~"
				}

			}
, 			{
				"box" : 				{
					"id" : "obj-16",
					"maxclass" : "gain~",
					"numinlets" : 1,
					"numoutlets" : 2,
					"outlettype" : [ "signal", "int" ],
					"parameter_enable" : 0,
					"patching_rect" : [ 305.5, 728.0, 22.0, 140.0 ],
					"style" : ""
				}

			}
, 			{
				"box" : 				{
					"fontname" : "Arial",
					"fontsize" : 13.0,
					"id" : "obj-46",
					"maxclass" : "comment",
					"numinlets" : 1,
					"numoutlets" : 0,
					"patching_rect" : [ 88.0, 61.0, 71.0, 21.0 ],
					"presentation" : 1,
					"presentation_rect" : [ 168.5, 107.0, 71.0, 21.0 ],
					"style" : "",
					"text" : "Modulante",
					"textcolor" : [ 1.0, 1.0, 1.0, 1.0 ]
				}

			}
, 			{
				"box" : 				{
					"fontname" : "Arial",
					"fontsize" : 13.0,
					"id" : "obj-47",
					"maxclass" : "comment",
					"numinlets" : 1,
					"numoutlets" : 0,
					"patching_rect" : [ 88.0, 45.0, 50.0, 21.0 ],
					"presentation" : 1,
					"presentation_rect" : [ 168.5, 90.75, 50.0, 21.0 ],
					"style" : "",
					"text" : "Carrier",
					"textcolor" : [ 1.0, 1.0, 1.0, 1.0 ]
				}

			}
, 			{
				"box" : 				{
					"activecolor" : [ 1.0, 1.0, 1.0, 1.0 ],
					"bgcolor" : [ 0.095481, 0.100396, 0.100293, 1.0 ],
					"disabled" : [ 0, 0 ],
					"id" : "obj-48",
					"itemtype" : 0,
					"maxclass" : "radiogroup",
					"numinlets" : 1,
					"numoutlets" : 1,
					"outlettype" : [ "" ],
					"parameter_enable" : 0,
					"patching_rect" : [ 70.0, 47.0, 111.5, 34.0 ],
					"presentation" : 1,
					"presentation_rect" : [ 154.5, 94.0, 112.5, 34.0 ],
					"size" : 2,
					"style" : "",
					"value" : 1
				}

			}
, 			{
				"box" : 				{
					"angle" : 270.0,
					"grad1" : [ 0.0, 0.0, 0.0, 1.0 ],
					"grad2" : [ 0.0, 0.0, 0.0, 1.0 ],
					"id" : "obj-65",
					"maxclass" : "panel",
					"mode" : 1,
					"numinlets" : 1,
					"numoutlets" : 0,
					"patching_rect" : [ 938.053711, 271.0, 128.0, 128.0 ],
					"presentation" : 1,
					"presentation_rect" : [ 8.5, 56.375, 384.0, 185.375 ],
					"proportion" : 0.39,
					"rounded" : 20,
					"style" : ""
				}

			}
, 			{
				"box" : 				{
					"angle" : 270.0,
					"grad1" : [ 0.095481, 0.100396, 0.100293, 1.0 ],
					"grad2" : [ 0.095481, 0.100396, 0.100293, 1.0 ],
					"id" : "obj-67",
					"maxclass" : "panel",
					"mode" : 1,
					"numinlets" : 1,
					"numoutlets" : 0,
					"patching_rect" : [ 920.231323, 252.0, 128.0, 128.0 ],
					"presentation" : 1,
					"presentation_rect" : [ 13.5, 17.0, 141.0, 40.0 ],
					"proportion" : 0.39,
					"rounded" : 20,
					"style" : ""
				}

			}
, 			{
				"box" : 				{
					"angle" : 270.0,
					"grad1" : [ 0.095481, 0.100396, 0.100293, 1.0 ],
					"grad2" : [ 0.095481, 0.100396, 0.100293, 1.0 ],
					"id" : "obj-74",
					"maxclass" : "panel",
					"mode" : 1,
					"numinlets" : 1,
					"numoutlets" : 0,
					"patching_rect" : [ 974.231323, 299.5, 128.0, 128.0 ],
					"presentation" : 1,
					"presentation_rect" : [ 247.0, 17.0, 139.75, 40.0 ],
					"proportion" : 0.39,
					"rounded" : 20,
					"style" : ""
				}

			}
, 			{
				"box" : 				{
					"angle" : 270.0,
					"grad1" : [ 0.0, 0.0, 0.0, 1.0 ],
					"grad2" : [ 0.0, 0.0, 0.0, 1.0 ],
					"id" : "obj-75",
					"maxclass" : "panel",
					"mode" : 1,
					"numinlets" : 1,
					"numoutlets" : 0,
					"patching_rect" : [ 1022.0, 353.0, 128.0, 128.0 ],
					"presentation" : 1,
					"presentation_rect" : [ 8.5, 11.3125, 384.0, 51.375 ],
					"proportion" : 0.39,
					"rounded" : 20,
					"style" : ""
				}

			}
 ],
		"lines" : [ 			{
				"patchline" : 				{
					"destination" : [ "obj-108", 2 ],
					"disabled" : 0,
					"hidden" : 0,
					"source" : [ "obj-1", 2 ]
				}

			}
, 			{
				"patchline" : 				{
					"destination" : [ "obj-108", 1 ],
					"disabled" : 0,
					"hidden" : 0,
					"source" : [ "obj-1", 1 ]
				}

			}
, 			{
				"patchline" : 				{
					"destination" : [ "obj-108", 0 ],
					"disabled" : 0,
					"hidden" : 0,
					"source" : [ "obj-1", 0 ]
				}

			}
, 			{
				"patchline" : 				{
					"destination" : [ "obj-12", 0 ],
					"disabled" : 0,
					"hidden" : 0,
					"source" : [ "obj-1", 0 ]
				}

			}
, 			{
				"patchline" : 				{
					"destination" : [ "obj-14", 0 ],
					"disabled" : 0,
					"hidden" : 0,
					"source" : [ "obj-1", 1 ]
				}

			}
, 			{
				"patchline" : 				{
					"destination" : [ "obj-11", 0 ],
					"disabled" : 0,
					"hidden" : 0,
					"source" : [ "obj-10", 0 ]
				}

			}
, 			{
				"patchline" : 				{
					"color" : [ 0.131345, 0.999677, 0.023624, 1.0 ],
					"destination" : [ "obj-53", 0 ],
					"disabled" : 0,
					"hidden" : 0,
					"source" : [ "obj-101", 0 ]
				}

			}
, 			{
				"patchline" : 				{
					"color" : [ 0.990416, 0.500269, 0.032866, 1.0 ],
					"destination" : [ "obj-50", 0 ],
					"disabled" : 0,
					"hidden" : 0,
					"source" : [ "obj-102", 0 ]
				}

			}
, 			{
				"patchline" : 				{
					"color" : [ 0.000111, 0.00176, 0.998218, 1.0 ],
					"destination" : [ "obj-91", 0 ],
					"disabled" : 0,
					"hidden" : 0,
					"source" : [ "obj-103", 0 ]
				}

			}
, 			{
				"patchline" : 				{
					"color" : [ 0.999996, 0.999939, 0.041033, 1.0 ],
					"destination" : [ "obj-8", 0 ],
					"disabled" : 0,
					"hidden" : 0,
					"source" : [ "obj-104", 0 ]
				}

			}
, 			{
				"patchline" : 				{
					"color" : [ 0.986246, 0.007121, 0.027434, 1.0 ],
					"destination" : [ "obj-92", 0 ],
					"disabled" : 0,
					"hidden" : 0,
					"source" : [ "obj-105", 0 ]
				}

			}
, 			{
				"patchline" : 				{
					"destination" : [ "obj-101", 0 ],
					"disabled" : 0,
					"hidden" : 0,
					"source" : [ "obj-106", 4 ]
				}

			}
, 			{
				"patchline" : 				{
					"destination" : [ "obj-102", 0 ],
					"disabled" : 0,
					"hidden" : 0,
					"source" : [ "obj-106", 3 ]
				}

			}
, 			{
				"patchline" : 				{
					"destination" : [ "obj-103", 0 ],
					"disabled" : 0,
					"hidden" : 0,
					"source" : [ "obj-106", 2 ]
				}

			}
, 			{
				"patchline" : 				{
					"destination" : [ "obj-104", 0 ],
					"disabled" : 0,
					"hidden" : 0,
					"source" : [ "obj-106", 1 ]
				}

			}
, 			{
				"patchline" : 				{
					"destination" : [ "obj-105", 0 ],
					"disabled" : 0,
					"hidden" : 0,
					"source" : [ "obj-106", 0 ]
				}

			}
, 			{
				"patchline" : 				{
					"destination" : [ "obj-38", 0 ],
					"disabled" : 0,
					"hidden" : 0,
					"midpoints" : [ 1772.723068, 196.5, 1790.731323, 196.5 ],
					"source" : [ "obj-106", 9 ]
				}

			}
, 			{
				"patchline" : 				{
					"destination" : [ "obj-4", 0 ],
					"disabled" : 0,
					"hidden" : 0,
					"source" : [ "obj-106", 10 ]
				}

			}
, 			{
				"patchline" : 				{
					"destination" : [ "obj-40", 0 ],
					"disabled" : 0,
					"hidden" : 0,
					"midpoints" : [ 1679.169347, 196.5, 1702.731323, 196.5 ],
					"source" : [ "obj-106", 7 ]
				}

			}
, 			{
				"patchline" : 				{
					"destination" : [ "obj-41", 0 ],
					"disabled" : 0,
					"hidden" : 0,
					"midpoints" : [ 1632.392486, 196.5, 1658.731323, 196.5 ],
					"source" : [ "obj-106", 6 ]
				}

			}
, 			{
				"patchline" : 				{
					"destination" : [ "obj-42", 0 ],
					"disabled" : 0,
					"hidden" : 0,
					"midpoints" : [ 1585.615626, 196.5, 1614.731323, 196.5 ],
					"source" : [ "obj-106", 5 ]
				}

			}
, 			{
				"patchline" : 				{
					"destination" : [ "obj-96", 0 ],
					"disabled" : 0,
					"hidden" : 0,
					"source" : [ "obj-106", 11 ]
				}

			}
, 			{
				"patchline" : 				{
					"destination" : [ "obj-97", 0 ],
					"disabled" : 0,
					"hidden" : 0,
					"midpoints" : [ 1725.946208, 196.5, 1746.731323, 196.5 ],
					"source" : [ "obj-106", 8 ]
				}

			}
, 			{
				"patchline" : 				{
					"destination" : [ "obj-106", 0 ],
					"disabled" : 0,
					"hidden" : 0,
					"source" : [ "obj-107", 0 ]
				}

			}
, 			{
				"patchline" : 				{
					"destination" : [ "obj-71", 1 ],
					"disabled" : 0,
					"hidden" : 0,
					"source" : [ "obj-109", 0 ]
				}

			}
, 			{
				"patchline" : 				{
					"destination" : [ "obj-3", 1 ],
					"disabled" : 0,
					"hidden" : 0,
					"source" : [ "obj-11", 0 ]
				}

			}
, 			{
				"patchline" : 				{
					"destination" : [ "obj-71", 2 ],
					"disabled" : 0,
					"hidden" : 0,
					"source" : [ "obj-110", 0 ]
				}

			}
, 			{
				"patchline" : 				{
					"destination" : [ "obj-113", 0 ],
					"disabled" : 0,
					"hidden" : 0,
					"source" : [ "obj-112", 0 ]
				}

			}
, 			{
				"patchline" : 				{
					"destination" : [ "obj-128", 0 ],
					"disabled" : 0,
					"hidden" : 0,
					"source" : [ "obj-113", 1 ]
				}

			}
, 			{
				"patchline" : 				{
					"destination" : [ "obj-15", 0 ],
					"disabled" : 0,
					"hidden" : 0,
					"source" : [ "obj-113", 0 ]
				}

			}
, 			{
				"patchline" : 				{
					"destination" : [ "obj-72", 0 ],
					"disabled" : 0,
					"hidden" : 0,
					"source" : [ "obj-116", 0 ]
				}

			}
, 			{
				"patchline" : 				{
					"destination" : [ "obj-72", 0 ],
					"disabled" : 0,
					"hidden" : 0,
					"source" : [ "obj-117", 0 ]
				}

			}
, 			{
				"patchline" : 				{
					"destination" : [ "obj-107", 1 ],
					"disabled" : 0,
					"hidden" : 0,
					"midpoints" : [ 1374.731323, 123.5, 1368.731323, 123.5 ],
					"source" : [ "obj-12", 1 ]
				}

			}
, 			{
				"patchline" : 				{
					"destination" : [ "obj-107", 0 ],
					"disabled" : 0,
					"hidden" : 0,
					"source" : [ "obj-12", 0 ]
				}

			}
, 			{
				"patchline" : 				{
					"destination" : [ "obj-131", 2 ],
					"disabled" : 0,
					"hidden" : 0,
					"source" : [ "obj-127", 0 ]
				}

			}
, 			{
				"patchline" : 				{
					"destination" : [ "obj-129", 0 ],
					"disabled" : 0,
					"hidden" : 0,
					"source" : [ "obj-128", 0 ]
				}

			}
, 			{
				"patchline" : 				{
					"destination" : [ "obj-130", 0 ],
					"disabled" : 0,
					"hidden" : 0,
					"source" : [ "obj-129", 0 ]
				}

			}
, 			{
				"patchline" : 				{
					"destination" : [ "obj-3", 0 ],
					"disabled" : 0,
					"hidden" : 0,
					"source" : [ "obj-13", 0 ]
				}

			}
, 			{
				"patchline" : 				{
					"destination" : [ "obj-9", 0 ],
					"disabled" : 0,
					"hidden" : 0,
					"source" : [ "obj-130", 0 ]
				}

			}
, 			{
				"patchline" : 				{
					"destination" : [ "obj-10", 0 ],
					"disabled" : 0,
					"hidden" : 0,
					"source" : [ "obj-131", 0 ]
				}

			}
, 			{
				"patchline" : 				{
					"destination" : [ "obj-131", 0 ],
					"disabled" : 0,
					"hidden" : 0,
					"midpoints" : [ 290.5, 410.0, 377.5, 410.0 ],
					"source" : [ "obj-132", 0 ]
				}

			}
, 			{
				"patchline" : 				{
					"destination" : [ "obj-107", 0 ],
					"disabled" : 0,
					"hidden" : 0,
					"midpoints" : [ 1261.731323, 123.5, 1351.731323, 123.5 ],
					"source" : [ "obj-14", 0 ]
				}

			}
, 			{
				"patchline" : 				{
					"destination" : [ "obj-20", 0 ],
					"disabled" : 0,
					"hidden" : 0,
					"source" : [ "obj-15", 0 ]
				}

			}
, 			{
				"patchline" : 				{
					"destination" : [ "obj-17", 1 ],
					"disabled" : 0,
					"hidden" : 0,
					"source" : [ "obj-16", 0 ]
				}

			}
, 			{
				"patchline" : 				{
					"destination" : [ "obj-17", 0 ],
					"disabled" : 0,
					"hidden" : 0,
					"source" : [ "obj-16", 0 ]
				}

			}
, 			{
				"patchline" : 				{
					"destination" : [ "obj-19", 0 ],
					"disabled" : 0,
					"hidden" : 0,
					"source" : [ "obj-161", 0 ]
				}

			}
, 			{
				"patchline" : 				{
					"destination" : [ "obj-16", 0 ],
					"disabled" : 0,
					"hidden" : 0,
					"source" : [ "obj-162", 0 ]
				}

			}
, 			{
				"patchline" : 				{
					"destination" : [ "obj-116", 0 ],
					"disabled" : 0,
					"hidden" : 0,
					"source" : [ "obj-18", 0 ]
				}

			}
, 			{
				"patchline" : 				{
					"destination" : [ "obj-117", 0 ],
					"disabled" : 0,
					"hidden" : 0,
					"source" : [ "obj-18", 1 ]
				}

			}
, 			{
				"patchline" : 				{
					"destination" : [ "obj-17", 0 ],
					"disabled" : 0,
					"hidden" : 0,
					"midpoints" : [ 231.0, 847.0, 307.5, 847.0 ],
					"source" : [ "obj-19", 0 ]
				}

			}
, 			{
				"patchline" : 				{
					"destination" : [ "obj-26", 1 ],
					"disabled" : 0,
					"hidden" : 0,
					"source" : [ "obj-2", 0 ]
				}

			}
, 			{
				"patchline" : 				{
					"destination" : [ "obj-23", 0 ],
					"disabled" : 0,
					"hidden" : 0,
					"source" : [ "obj-20", 0 ]
				}

			}
, 			{
				"patchline" : 				{
					"destination" : [ "obj-17", 0 ],
					"disabled" : 0,
					"hidden" : 0,
					"midpoints" : [ 272.0, 880.0, 284.5, 880.0, 284.5, 881.0, 307.5, 881.0 ],
					"source" : [ "obj-21", 0 ]
				}

			}
, 			{
				"patchline" : 				{
					"destination" : [ "obj-11", 0 ],
					"disabled" : 0,
					"hidden" : 0,
					"midpoints" : [ 650.0, 595.0, 325.5, 595.0 ],
					"source" : [ "obj-22", 0 ]
				}

			}
, 			{
				"patchline" : 				{
					"destination" : [ "obj-68", 0 ],
					"disabled" : 0,
					"hidden" : 0,
					"source" : [ "obj-23", 0 ]
				}

			}
, 			{
				"patchline" : 				{
					"destination" : [ "obj-10", 0 ],
					"disabled" : 0,
					"hidden" : 0,
					"midpoints" : [ 608.5, 556.0, 325.5, 556.0 ],
					"source" : [ "obj-24", 0 ]
				}

			}
, 			{
				"patchline" : 				{
					"destination" : [ "obj-13", 0 ],
					"disabled" : 0,
					"hidden" : 0,
					"source" : [ "obj-26", 0 ]
				}

			}
, 			{
				"patchline" : 				{
					"destination" : [ "obj-22", 0 ],
					"disabled" : 0,
					"hidden" : 0,
					"midpoints" : [ 552.5, 504.0, 650.0, 504.0 ],
					"source" : [ "obj-27", 0 ]
				}

			}
, 			{
				"patchline" : 				{
					"destination" : [ "obj-24", 0 ],
					"disabled" : 0,
					"hidden" : 0,
					"midpoints" : [ 552.5, 504.0, 608.5, 504.0 ],
					"source" : [ "obj-27", 0 ]
				}

			}
, 			{
				"patchline" : 				{
					"destination" : [ "obj-30", 0 ],
					"disabled" : 0,
					"hidden" : 0,
					"source" : [ "obj-28", 0 ]
				}

			}
, 			{
				"patchline" : 				{
					"destination" : [ "obj-16", 0 ],
					"disabled" : 0,
					"hidden" : 0,
					"source" : [ "obj-3", 0 ]
				}

			}
, 			{
				"patchline" : 				{
					"destination" : [ "obj-6", 0 ],
					"disabled" : 0,
					"hidden" : 0,
					"source" : [ "obj-3", 0 ]
				}

			}
, 			{
				"patchline" : 				{
					"destination" : [ "obj-10", 0 ],
					"disabled" : 0,
					"hidden" : 0,
					"midpoints" : [ 684.5, 555.0, 325.5, 555.0 ],
					"source" : [ "obj-30", 0 ]
				}

			}
, 			{
				"patchline" : 				{
					"destination" : [ "obj-11", 0 ],
					"disabled" : 0,
					"hidden" : 0,
					"midpoints" : [ 533.0, 598.0 ],
					"source" : [ "obj-30", 0 ]
				}

			}
, 			{
				"patchline" : 				{
					"destination" : [ "obj-27", 0 ],
					"disabled" : 0,
					"hidden" : 0,
					"source" : [ "obj-32", 0 ]
				}

			}
, 			{
				"patchline" : 				{
					"destination" : [ "obj-28", 0 ],
					"disabled" : 0,
					"hidden" : 0,
					"source" : [ "obj-32", 1 ]
				}

			}
, 			{
				"patchline" : 				{
					"color" : [ 0.131345, 0.999677, 0.023624, 1.0 ],
					"destination" : [ "obj-56", 0 ],
					"disabled" : 0,
					"hidden" : 0,
					"source" : [ "obj-38", 0 ]
				}

			}
, 			{
				"patchline" : 				{
					"destination" : [ "obj-26", 0 ],
					"disabled" : 0,
					"hidden" : 0,
					"midpoints" : [ 54.5, 414.0, 141.5, 414.0 ],
					"source" : [ "obj-39", 0 ]
				}

			}
, 			{
				"patchline" : 				{
					"destination" : [ "obj-95", 0 ],
					"disabled" : 0,
					"hidden" : 0,
					"source" : [ "obj-4", 0 ]
				}

			}
, 			{
				"patchline" : 				{
					"color" : [ 0.000111, 0.00176, 0.998218, 1.0 ],
					"destination" : [ "obj-81", 0 ],
					"disabled" : 0,
					"hidden" : 0,
					"source" : [ "obj-40", 0 ]
				}

			}
, 			{
				"patchline" : 				{
					"color" : [ 0.999996, 0.999939, 0.041033, 1.0 ],
					"destination" : [ "obj-83", 0 ],
					"disabled" : 0,
					"hidden" : 0,
					"source" : [ "obj-41", 0 ]
				}

			}
, 			{
				"patchline" : 				{
					"color" : [ 0.986246, 0.007121, 0.027434, 1.0 ],
					"destination" : [ "obj-85", 0 ],
					"disabled" : 0,
					"hidden" : 0,
					"source" : [ "obj-42", 0 ]
				}

			}
, 			{
				"patchline" : 				{
					"destination" : [ "obj-110", 0 ],
					"disabled" : 0,
					"hidden" : 0,
					"source" : [ "obj-44", 0 ]
				}

			}
, 			{
				"patchline" : 				{
					"destination" : [ "obj-109", 0 ],
					"disabled" : 0,
					"hidden" : 0,
					"source" : [ "obj-45", 0 ]
				}

			}
, 			{
				"patchline" : 				{
					"destination" : [ "obj-18", 0 ],
					"disabled" : 0,
					"hidden" : 0,
					"source" : [ "obj-48", 0 ]
				}

			}
, 			{
				"patchline" : 				{
					"destination" : [ "obj-131", 1 ],
					"disabled" : 0,
					"hidden" : 0,
					"source" : [ "obj-5", 0 ]
				}

			}
, 			{
				"patchline" : 				{
					"destination" : [ "obj-2", 0 ],
					"disabled" : 0,
					"hidden" : 0,
					"source" : [ "obj-68", 0 ]
				}

			}
, 			{
				"patchline" : 				{
					"destination" : [ "obj-130", 0 ],
					"disabled" : 0,
					"hidden" : 0,
					"source" : [ "obj-71", 1 ]
				}

			}
, 			{
				"patchline" : 				{
					"destination" : [ "obj-23", 0 ],
					"disabled" : 0,
					"hidden" : 0,
					"source" : [ "obj-71", 0 ]
				}

			}
, 			{
				"patchline" : 				{
					"destination" : [ "obj-71", 0 ],
					"disabled" : 0,
					"hidden" : 0,
					"source" : [ "obj-72", 0 ]
				}

			}
, 			{
				"patchline" : 				{
					"destination" : [ "obj-32", 0 ],
					"disabled" : 0,
					"hidden" : 0,
					"source" : [ "obj-73", 0 ]
				}

			}
, 			{
				"patchline" : 				{
					"destination" : [ "obj-26", 2 ],
					"disabled" : 0,
					"hidden" : 0,
					"source" : [ "obj-82", 0 ]
				}

			}
, 			{
				"patchline" : 				{
					"destination" : [ "obj-5", 0 ],
					"disabled" : 0,
					"hidden" : 0,
					"source" : [ "obj-9", 0 ]
				}

			}
, 			{
				"patchline" : 				{
					"destination" : [ "obj-7", 0 ],
					"disabled" : 0,
					"hidden" : 0,
					"source" : [ "obj-96", 0 ]
				}

			}
, 			{
				"patchline" : 				{
					"color" : [ 0.990416, 0.500269, 0.032866, 1.0 ],
					"destination" : [ "obj-57", 0 ],
					"disabled" : 0,
					"hidden" : 0,
					"source" : [ "obj-97", 0 ]
				}

			}
 ],
		"dependency_cache" : [  ],
		"embedsnapshot" : 0
	}

}
